<?xml version="1.0" standalone="no"?>
<!DOCTYPE svg PUBLIC "-//W3C//DTD SVG 20010904//EN"
 "http://www.w3.org/TR/2001/REC-SVG-20010904/DTD/svg10.dtd">
<svg version="1.0" xmlns="http://www.w3.org/2000/svg"
 width="1200.000000pt" height="675.000000pt" viewBox="0 0 1200.000000 675.000000"
 preserveAspectRatio="xMidYMid meet">

<g transform="translate(0.000000,675.000000) scale(0.100000,-0.100000)"
fill="#000000" stroke="none">
<path d="M6605 6631 l-100 -28 -67 -119 c-38 -66 -68 -131 -68 -146 0 -18 -5
-28 -15 -28 -28 0 -55 -74 -55 -149 0 -38 -3 -72 -7 -74 -5 -3 -64 4 -133 14
-69 10 -467 68 -885 129 -418 61 -1006 146 -1307 190 -301 44 -549 80 -552 80
-3 0 -6 9 -6 19 0 23 -7 25 -117 41 -73 11 -86 11 -108 -4 -14 -9 -25 -14 -25
-11 0 3 -9 1 -20 -5 -20 -11 -20 -23 -22 -2487 l-3 -2477 -30 -7 c-16 -4 -93
-17 -170 -29 -77 -12 -150 -24 -163 -27 l-22 -5 2 -601 3 -601 156 -122 155
-123 385 102 c211 56 390 106 396 110 10 6 13 145 13 608 l-1 601 -82 38 -82
38 55 11 c30 6 258 46 505 90 1371 244 1698 301 1715 301 19 0 20 -11 22 -432
l3 -432 200 -76 200 -76 230 61 c127 34 242 65 258 69 l27 6 0 484 0 484 -157
36 c-87 21 -164 39 -171 41 -10 4 -12 37 -10 142 l3 137 910 138 c501 75 918
137 928 137 15 1 17 -10 17 -98 0 -55 -4 -102 -10 -106 -5 -3 -64 -15 -131
-26 -67 -10 -125 -22 -130 -25 -8 -4 -14 -794 -6 -794 1 0 97 -24 213 -54
l212 -53 253 67 c140 37 513 136 829 220 316 84 647 171 735 195 l160 42 3
335 2 336 -22 6 c-13 3 -38 6 -55 6 l-33 0 0 279 c0 177 -4 282 -10 286 -7 4
-10 417 -10 1217 0 930 -3 1213 -12 1219 -16 10 -125 23 -167 20 -18 -2 -37 2
-40 8 -10 15 -105 32 -176 32 -33 0 -62 4 -66 10 -10 17 -154 39 -204 33 -31
-5 -43 -3 -48 8 -7 20 -142 42 -212 35 -42 -4 -55 -2 -55 8 0 16 -11 20 -100
35 -36 7 -91 9 -122 5 -48 -5 -58 -3 -58 9 0 17 -10 20 -109 36 -41 7 -100 9
-131 6 -52 -6 -58 -5 -63 14 -3 12 -13 20 -26 20 -12 0 -21 3 -21 6 0 4 32 51
70 105 39 54 70 100 70 103 0 17 -98 15 -199 -3 -63 -12 -116 -21 -117 -21
-12 0 -134 -190 -134 -208 0 -14 -8 -26 -23 -31 -45 -17 -57 -51 -57 -165 0
-58 -3 -107 -7 -109 -5 -2 -132 13 -283 34 -151 21 -360 50 -465 64 -104 14
-395 54 -645 88 l-455 62 -7 72 -7 72 159 278 c123 216 156 280 145 286 -38
21 -141 16 -240 -12z m1220 -896 c313 -42 573 -79 577 -81 10 -7 11 -231 1
-237 -6 -3 -1833 197 -1850 202 -2 1 -3 65 -3 144 l0 143 353 -48 c193 -26
608 -81 922 -123z m-890 -190 c176 -19 574 -62 885 -95 311 -34 571 -63 578
-65 13 -5 18 -230 5 -238 -6 -3 -1576 127 -1850 153 -2 0 -3 65 -3 144 l0 145
33 -5 c17 -2 176 -20 352 -39z m-2010 -155 c743 -61 1355 -112 1360 -114 22
-9 -54 -4 -596 40 -310 25 -948 76 -1417 114 -470 38 -857 72 -860 76 -9 9
-85 14 1513 -116z m2590 -201 c479 -38 876 -72 883 -74 14 -5 18 -230 4 -239
-4 -2 -415 20 -912 50 -498 29 -913 54 -922 54 -16 0 -18 14 -18 146 l0 146
48 -6 c26 -3 439 -38 917 -77z m-506 -264 c240 -14 553 -32 696 -40 143 -8
355 -20 470 -26 116 -6 216 -12 223 -14 14 -5 18 -230 4 -239 -8 -4 -920 22
-1307 38 -71 3 -223 9 -337 12 l-208 7 0 143 c0 100 3 144 11 144 6 0 208 -11
448 -25z m-19 -305 c173 -5 371 -12 440 -14 69 -3 312 -11 540 -17 228 -6 421
-12 428 -15 9 -2 12 -36 12 -125 l0 -122 -477 6 c-263 4 -682 7 -930 7 l-453
0 0 145 0 145 63 0 c34 0 204 -4 377 -10z m-2955 -115 c1128 -17 2251 -38
2254 -41 2 -2 2 -6 0 -8 -3 -3 -2865 40 -2876 43 -2 1 -3 6 -3 12 0 7 45 8
143 5 78 -3 295 -8 482 -11z m4373 -321 l3 -122 -268 -6 c-619 -14 -739 -16
-1155 -22 l-438 -7 0 141 0 142 928 -2 927 -3 3 -121z m2 -273 l0 -119 -102
-6 c-126 -8 -1680 -76 -1725 -76 l-33 0 0 145 0 145 168 1 c92 1 403 7 692 13
289 7 632 14 763 14 l237 2 0 -119z m0 -270 l0 -119 -62 -6 c-35 -4 -355 -27
-713 -51 -357 -25 -741 -52 -852 -60 -111 -8 -209 -15 -218 -15 -13 0 -15 21
-15 143 l0 144 123 6 c67 4 370 18 672 32 303 14 620 29 705 34 85 4 201 9
258 10 l102 1 0 -119z m-2111 4 c-3 -2 -561 -32 -1240 -65 -1210 -58 -1309
-63 -1536 -76 -80 -4 -113 -3 -113 5 0 6 17 11 38 11 20 0 186 7 367 16 2208
108 2495 121 2484 109z m2111 -274 l0 -119 -42 -6 c-40 -5 -236 -24 -1303
-125 -231 -22 -441 -43 -467 -46 l-48 -6 0 146 c0 80 3 145 8 145 4 0 158 11
342 25 184 13 497 36 695 50 198 15 434 32 525 39 91 8 193 14 228 15 l62 1 0
-119z m0 -270 l0 -119 -37 -6 c-38 -6 -417 -53 -1308 -160 -253 -31 -472 -58
-487 -61 l-28 -4 0 143 0 144 43 6 c23 3 299 31 612 61 314 31 694 69 845 85
151 15 294 28 318 29 l42 1 0 -119z m0 -270 l0 -119 -27 -6 c-16 -3 -120 -19
-233 -36 -178 -25 -814 -119 -1412 -208 l-188 -28 0 143 c0 79 1 143 3 144 14
4 1800 227 1825 228 l32 1 0 -119z m-2123 3 c-3 -3 -12 -4 -19 -1 -8 3 -5 6 6
6 11 1 17 -2 13 -5z m-52 -10 c-19 -4 -1919 -220 -2500 -284 -148 -17 -283
-32 -300 -35 -17 -3 -25 -2 -20 3 6 5 217 32 470 60 521 58 1469 165 1960 222
276 31 470 48 390 34z"/>
</g>
</svg>
