<?xml version="1.0" standalone="no"?>
<!DOCTYPE svg PUBLIC "-//W3C//DTD SVG 20010904//EN"
 "http://www.w3.org/TR/2001/REC-SVG-20010904/DTD/svg10.dtd">
<svg version="1.0" xmlns="http://www.w3.org/2000/svg"
 width="1200.000000pt" height="675.000000pt" viewBox="0 0 1200.000000 675.000000"
 preserveAspectRatio="xMidYMid meet">

<g transform="translate(0.000000,675.000000) scale(0.100000,-0.100000)"
fill="#000000" stroke="none">
<path d="M8343 5633 c-13 -2 -23 -7 -23 -10 0 -3 23 -77 50 -164 l51 -158 -1
-1727 c0 -950 -2 -1729 -3 -1731 -2 -1 -120 18 -263 45 l-259 47 -3 1687 -2
1686 -49 7 c-27 4 -66 2 -91 -5 -23 -6 -69 -9 -104 -6 -33 3 -203 10 -376 16
-173 6 -351 12 -395 15 -44 2 -172 7 -285 10 -113 3 -227 8 -255 10 -27 2
-152 7 -278 11 -125 4 -230 11 -233 15 -3 5 -39 9 -80 9 l-74 0 0 -1525 0
-1525 -21 0 c-11 0 -30 -5 -41 -11 -21 -12 -105 -2 -200 22 l-38 10 0 1317 c0
1157 -2 1320 -15 1339 -8 12 -31 52 -51 90 -20 37 -41 71 -48 75 -28 19 -182
1 -196 -23 -7 -10 -141 -6 -724 23 l-716 36 -25 26 c-15 16 -35 26 -52 26 -56
0 -163 -13 -163 -20 0 -4 40 -64 90 -134 l90 -127 0 -1150 0 -1150 -47 7 c-26
4 -59 10 -73 14 l-25 6 -3 1147 -2 1147 -118 0 c-177 -1 -1243 68 -1259 82
-12 10 -118 6 -129 -5 -3 -2 -5 -466 -4 -1030 0 -564 -3 -1033 -6 -1041 -7
-18 -41 -21 -78 -6 l-26 10 0 830 c0 657 -3 830 -12 831 -7 1 -65 2 -128 4
-63 1 -272 16 -465 34 -493 44 -546 50 -561 62 -8 7 -33 8 -68 4 l-56 -7 -2
-786 -3 -786 -82 -20 -83 -20 0 -242 0 -242 72 -16 c115 -26 144 -29 179 -18
19 6 80 25 137 42 l102 31 -6 205 c-5 139 -4 204 3 204 6 0 178 -32 382 -70
204 -39 374 -70 378 -70 19 0 -17 -19 -59 -30 l-48 -13 0 -258 0 -258 38 -10
c20 -5 132 -30 247 -55 l210 -46 130 48 130 48 5 225 5 225 280 -53 c555 -103
666 -126 658 -133 -4 -4 -29 -15 -56 -25 l-48 -18 1 -278 c1 -155 5 -281 10
-284 5 -3 140 -35 300 -70 l291 -65 119 60 120 60 0 246 0 246 28 -5 c15 -3
285 -54 600 -113 314 -59 572 -111 572 -114 0 -3 -20 -16 -45 -28 l-45 -22 0
-315 c0 -173 1 -315 3 -315 1 0 205 -45 452 -100 247 -55 455 -98 462 -96 7 3
64 43 128 90 l115 86 0 250 c0 283 -7 261 83 240 23 -5 128 -25 232 -44 225
-42 867 -162 943 -177 l54 -11 -41 -35 -41 -35 0 -349 0 -349 23 -5 c12 -3
316 -70 674 -150 359 -80 664 -147 677 -151 22 -5 32 5 100 108 l76 113 0 287
c0 211 3 288 12 288 6 0 45 -7 87 -15 90 -18 972 -183 1396 -262 165 -31 301
-57 303 -58 1 -1 -5 -24 -13 -51 -12 -40 -15 -123 -15 -445 l0 -396 438 -96
c240 -54 442 -97 448 -97 6 0 18 63 28 158 14 129 17 225 14 537 l-3 380 -197
35 -197 35 -4 2070 c-3 1138 -8 2095 -13 2125 l-9 55 -65 3 c-91 4 -112 -2
-104 -33 7 -30 87 -29 -666 -10 -322 8 -871 22 -1220 30 -349 9 -640 18 -647
20 -6 2 -13 14 -15 27 -3 22 -8 23 -78 24 -41 1 -85 0 -97 -3z m1692 -112
l1030 -26 3 -29 4 -29 -79 7 c-43 3 -409 15 -813 26 -404 10 -798 22 -875 24
-77 3 -275 9 -440 12 -173 4 -305 11 -312 17 -7 5 -13 16 -13 24 0 12 36 13
233 7 127 -4 696 -18 1262 -33z m-300 -61 c363 -11 779 -22 925 -26 146 -3
283 -8 305 -9 22 -2 57 -3 78 -4 33 -1 37 -4 37 -27 l0 -26 -107 6 c-129 7
-487 19 -1433 46 -941 28 -974 30 -978 54 -5 22 -97 23 1173 -14z m-565 -50
c190 -6 410 -12 490 -15 136 -5 369 -12 1114 -35 170 -5 311 -12 314 -14 3 -3
4 -373 3 -823 -1 -636 -4 -819 -14 -825 -9 -6 -9 -8 1 -8 9 0 12 -36 12 -145
0 -140 -1 -145 -21 -145 -11 0 -18 -4 -14 -10 3 -5 12 -7 20 -3 13 4 15 -11
17 -93 0 -55 1 -106 0 -114 -1 -8 -1 -157 -1 -330 -1 -754 -1 -784 -13 -791
-6 -4 -18 -4 -27 -1 -14 6 -14 7 2 10 9 2 17 10 17 17 0 8 -6 12 -14 9 -8 -3
-17 0 -22 7 -4 8 -3 10 4 5 7 -4 12 -1 12 8 0 9 -6 13 -15 10 -10 -4 -13 0
-10 15 2 12 0 19 -5 16 -13 -8 -33 34 -24 53 4 9 6 24 5 32 -2 13 -1 13 8 0 5
-8 8 -17 6 -20 -2 -3 5 -6 15 -6 15 0 16 4 9 24 -12 31 -11 45 1 37 6 -3 10
-1 10 4 0 13 -6 14 -29 2 -13 -7 -17 -5 -18 10 -1 11 2 17 8 14 5 -4 9 -1 9 4
0 6 -4 11 -10 11 -5 0 -10 5 -10 11 0 5 5 7 10 4 6 -3 10 3 10 13 0 11 8 23
17 26 15 6 15 8 3 17 -11 8 -7 9 15 4 30 -6 30 -6 7 10 l-22 16 22 19 c13 11
18 19 11 20 -6 0 -13 -6 -16 -12 -3 -10 -7 -10 -19 -1 -8 7 -18 10 -21 6 -4
-3 -7 -1 -7 5 0 7 5 12 10 12 6 0 10 4 10 10 0 5 -6 7 -14 4 -9 -3 -17 6 -24
25 -9 26 -17 31 -44 32 -24 1 -18 4 22 10 30 4 60 6 67 4 25 -8 26 60 1 76 -5
3 -2 17 5 32 8 15 16 24 19 21 4 -3 9 -1 13 5 12 21 -27 11 -46 -11 -11 -14
-18 -18 -19 -10 0 15 19 36 40 45 12 4 11 6 -2 6 -10 1 -18 8 -18 16 0 7 -8
19 -17 24 -16 9 -16 10 -2 11 9 0 20 -8 24 -17 6 -17 7 -16 18 2 17 29 17 45
1 45 -8 0 -14 6 -15 13 0 6 -4 3 -8 -8 -8 -18 -10 -16 -26 17 -20 41 -14 70
12 66 10 -2 20 -6 23 -9 3 -4 11 -1 18 7 10 11 10 14 0 14 -9 0 -13 13 -13 39
0 29 3 37 14 33 9 -3 12 0 9 9 -3 8 -13 13 -22 11 -9 -2 -24 1 -33 7 -14 8
-11 12 21 25 23 9 35 20 30 27 -5 8 -9 8 -14 -2 -7 -10 -11 -10 -24 0 -9 7
-13 17 -10 22 3 5 0 9 -5 9 -6 0 -10 3 -9 8 1 4 -1 30 -5 58 l-7 51 -113 12
c-61 7 -242 28 -402 46 -159 18 -425 48 -590 66 -165 19 -291 35 -279 37 19 3
438 -43 1054 -114 361 -41 338 -41 342 -13 2 16 9 23 21 22 10 0 16 1 13 4 -3
3 0 15 6 27 11 20 10 20 -9 3 -11 -9 -24 -17 -29 -17 -5 0 -2 5 6 10 12 8 13
11 1 19 -9 6 -10 11 -2 15 6 4 11 3 11 -3 0 -6 7 -8 16 -4 16 6 16 7 0 18 -15
11 -15 13 -1 19 9 3 14 2 11 -2 -3 -4 4 -13 15 -20 15 -10 19 -10 19 2 0 8 -5
18 -10 21 -6 4 -8 10 -5 15 3 4 -2 13 -10 20 -8 6 -19 27 -25 46 -6 19 -15 34
-19 34 -14 0 -21 73 -9 87 6 7 22 13 37 14 26 0 26 0 3 10 l-23 9 20 22 c12
12 21 27 21 32 0 6 -12 -3 -27 -19 -16 -16 -27 -33 -25 -38 1 -5 -2 -6 -8 -2
-6 4 -7 12 -3 18 5 7 8 39 8 72 0 42 4 64 15 72 13 11 13 12 0 13 -12 0 -10 4
4 15 19 15 19 15 -2 15 -18 0 -23 8 -28 40 -5 30 -11 40 -25 40 -10 0 -168 13
-351 30 -367 33 -1064 94 -1598 140 -190 17 -367 34 -395 39 l-50 10 60 -5
c73 -5 1014 -87 1784 -154 310 -28 568 -47 575 -43 6 4 21 6 34 4 16 -2 22 3
22 16 0 15 -2 16 -11 3 -9 -12 -10 -11 -6 8 3 15 0 22 -9 22 -8 0 -14 -8 -14
-17 0 -9 -3 -13 -7 -10 -11 11 20 58 34 53 8 -3 13 2 13 13 0 11 -6 22 -12 24
-7 3 -4 6 6 6 26 1 7 21 -21 24 -11 0 -20 7 -20 14 0 9 8 11 21 7 15 -4 17 -3
8 4 -8 5 -14 13 -14 17 0 4 6 12 14 17 10 8 10 9 -2 5 -8 -2 -14 -11 -12 -18
3 -11 1 -12 -9 -1 -15 14 -5 27 26 35 19 5 19 5 -1 6 -15 1 -24 12 -34 40 -14
43 -8 61 20 61 10 0 22 5 25 10 3 6 -3 10 -14 10 -11 0 -23 5 -27 12 -5 7 -3
8 6 3 10 -6 11 -4 4 6 -14 23 -13 37 3 43 8 4 11 1 7 -5 -3 -6 3 -5 14 2 19
12 27 49 11 49 -3 0 -4 11 -1 25 2 15 0 25 -8 25 -7 0 -9 -8 -5 -22 6 -16 4
-20 -8 -15 -11 4 -13 0 -10 -14 3 -10 9 -16 14 -13 5 3 9 -2 9 -11 0 -13 -4
-14 -20 -5 -23 12 -25 34 -7 70 11 21 11 27 -2 38 -12 10 -13 15 -3 18 6 3 12
13 12 22 0 14 -2 15 -9 3 -7 -11 -11 -5 -16 22 -5 25 -13 37 -24 37 -63 0
-2385 150 -2389 155 -9 8 -1 8 1228 -69 646 -41 1177 -70 1180 -66 3 4 15 10
27 14 25 8 21 36 -6 36 -14 0 -14 2 -1 10 13 8 13 13 2 31 -9 14 -10 25 -4 31
7 7 10 4 9 -7 -1 -10 4 -20 11 -22 7 -3 12 5 13 19 1 17 3 18 6 6 7 -28 21
-21 15 7 -2 14 -8 22 -13 19 -5 -3 -9 2 -9 11 0 9 5 13 11 9 8 -4 9 1 4 16 -4
14 -3 20 3 16 5 -3 12 1 16 9 9 24 -20 17 -31 -7 -10 -21 -11 -22 -18 -4 -5
11 -3 22 6 28 11 8 10 9 -4 4 -19 -6 -22 -1 -32 56 -5 35 -4 38 27 47 21 6 26
10 13 10 -17 1 -18 3 -5 12 12 9 10 10 -8 6 -18 -4 -21 -3 -12 8 8 10 8 14 -2
17 -8 3 -6 7 6 11 10 4 15 3 11 -3 -3 -6 -2 -10 4 -10 17 0 23 20 10 36 -7 8
-18 13 -26 10 -7 -3 -13 -1 -13 4 0 6 8 10 18 10 28 0 22 54 -6 58 -12 2 -20
7 -17 12 3 5 13 6 23 3 9 -3 14 -2 9 2 -4 5 0 19 8 32 15 22 14 23 -7 19 -13
-2 -32 4 -43 13 -18 15 -19 15 -6 -1 10 -13 10 -18 2 -18 -7 0 -9 -5 -5 -12 4
-7 3 -8 -4 -4 -16 10 -15 -7 1 -23 10 -11 8 -11 -10 0 -12 7 -20 16 -17 20 2
4 0 10 -6 14 -5 3 -10 12 -10 18 0 7 4 6 10 -3 5 -8 12 -11 15 -8 15 14 -8 30
-36 24 -16 -3 -29 -1 -29 4 0 6 -8 5 -19 -2 -22 -13 -17 -33 5 -24 8 3 14 -1
14 -9 0 -19 -5 -19 -36 1 -16 11 -21 20 -15 28 7 8 -6 12 -45 13 -30 1 -54 -2
-54 -8 0 -5 -5 -9 -11 -9 -5 0 -7 6 -3 13 5 8 2 8 -9 -2 -15 -12 -17 -11 -17
3 0 15 -3 14 -22 -4 -12 -11 -24 -17 -27 -14 -3 4 0 9 7 11 28 11 8 19 -40 18
-29 -1 -61 2 -70 6 -10 6 -19 5 -23 -1 -4 -6 -10 -8 -15 -5 -5 3 -34 8 -65 10
-30 2 -59 7 -65 10 -5 3 -10 2 -10 -3 0 -12 -83 -9 -92 3 -5 6 -8 6 -8 -1 0
-8 -11 -10 -32 -5 -18 4 -64 7 -103 5 -38 -1 -76 3 -82 8 -9 7 -18 7 -28 -2
-12 -10 -15 -10 -15 0 0 8 -3 10 -7 7 -3 -4 -13 -2 -20 5 -10 8 -17 8 -21 1
-9 -14 -73 -15 -89 -1 -9 7 -13 7 -13 -2 0 -9 -4 -9 -17 1 -14 12 -15 12 -9 0
7 -10 3 -12 -13 -6 -11 3 -60 7 -109 7 -59 1 -81 4 -67 10 21 9 22 9 -51 -9
-12 -3 -28 2 -37 12 -16 15 -17 15 -17 -1 0 -13 -3 -14 -14 -5 -8 7 -29 9 -50
6 -26 -5 -36 -3 -36 7 0 9 -3 9 -8 2 -9 -14 -74 -15 -65 -1 4 6 1 7 -7 2 -16
-10 -101 -14 -95 -5 2 4 -15 6 -38 6 -23 -1 -53 3 -67 7 -19 7 -22 6 -10 -3
11 -8 0 -9 -45 -4 -33 3 -66 12 -74 18 -11 8 -13 8 -7 -1 5 -10 1 -11 -16 -4
-15 5 -31 5 -41 0 -9 -6 -17 -6 -17 -1 0 4 -16 7 -35 6 -20 -2 -35 1 -35 8 0
7 -4 7 -12 0 -12 -9 -116 -9 -135 0 -4 2 -39 6 -78 7 -103 4 -117 20 -20 23
l80 2 -67 3 -68 4 0 80 0 81 123 -6 c67 -4 277 -11 467 -16z m-1440 -770 c-1
-496 -3 -640 -13 -641 -9 0 -9 -2 0 -5 9 -4 12 -143 13 -594 l0 -588 -22 4
c-13 2 -17 2 -10 -2 13 -6 17 -34 4 -34 -5 0 -14 11 -20 25 -11 23 -10 25 15
25 25 0 26 0 8 20 -10 11 -14 20 -9 20 5 0 2 5 -6 10 -13 8 -12 10 3 10 10 0
15 5 12 10 -3 6 -2 10 4 10 6 0 8 7 5 15 -4 10 -13 13 -25 10 -16 -5 -19 -1
-20 27 -2 47 1 59 17 75 17 18 18 43 2 43 -9 1 -8 5 3 13 19 15 21 47 2 40 -8
-3 -13 2 -13 12 0 12 6 16 18 13 12 -4 18 1 19 13 1 16 -2 17 -17 9 -13 -7
-19 -6 -23 5 -4 8 2 17 15 21 l22 7 -21 17 c-26 20 -30 36 -20 73 7 26 29 30
23 4 -1 -7 -1 -9 1 -4 3 4 10 4 16 0 9 -5 9 -3 1 8 -6 8 -14 23 -17 34 -7 20
-7 20 8 1 16 -21 21 -10 5 14 -5 8 -5 17 0 20 5 3 5 12 0 20 -8 13 -10 12 -10
-2 0 -9 -5 -20 -12 -24 -7 -4 -8 -3 -4 4 4 7 2 12 -4 12 -6 0 -4 8 6 18 16 16
16 17 1 20 -10 2 -15 8 -11 13 3 5 10 7 15 4 5 -4 9 -1 9 4 0 6 -5 11 -11 11
-7 0 -9 11 -5 30 3 17 1 30 -4 30 -6 0 -10 11 -10 24 0 22 -6 26 -47 31 -76
10 -83 15 -15 10 46 -4 62 -1 62 8 0 7 9 23 20 35 12 12 16 22 10 22 -6 0 -8
10 -4 25 5 21 3 24 -12 19 -15 -6 -17 -4 -7 6 6 7 9 19 6 26 -3 8 -1 14 4 14
4 0 14 9 21 21 10 15 10 19 1 14 -7 -5 -10 -3 -7 6 3 8 -3 21 -13 29 -18 16
-22 31 -20 65 1 17 3 18 11 5 9 -13 11 -13 20 0 7 11 5 17 -8 21 -16 6 -16 7
0 14 21 9 14 27 -7 18 -17 -6 -22 32 -6 42 6 3 6 17 1 35 -5 18 -5 32 1 35 5
4 5 14 -1 25 -13 25 -13 33 3 24 10 -6 10 -4 0 7 -7 7 -13 21 -13 31 0 10 -3
18 -8 18 -7 0 -892 77 -1507 132 -143 13 -249 24 -235 26 23 3 233 -15 1348
-113 261 -23 400 -31 412 -25 9 5 20 7 22 4 3 -2 3 7 0 22 -3 19 -7 22 -13 12
-5 -7 -9 -8 -9 -3 0 6 5 16 11 22 5 5 12 31 14 56 3 35 0 47 -13 52 -12 4 -13
8 -4 14 9 5 7 16 -7 45 -21 41 -18 68 6 59 13 -5 15 -1 9 21 -5 20 -4 26 5 20
7 -4 9 -3 5 4 -3 6 -2 13 4 17 5 3 10 15 10 26 0 11 -4 17 -10 14 -5 -3 -10
-1 -10 4 0 6 -6 10 -12 9 -7 -2 -13 4 -13 12 0 8 5 14 12 13 14 -3 6 27 -11
40 -6 5 -1 5 12 2 13 -4 22 -2 22 4 0 6 -9 11 -20 11 -16 0 -20 7 -20 35 0 20
-6 37 -12 40 -7 2 -420 29 -918 60 -498 31 -909 58 -915 60 -26 9 130 1 953
-51 487 -30 888 -51 892 -47 14 15 23 56 11 49 -6 -4 -11 -2 -11 3 0 6 6 11
14 11 7 0 20 8 27 17 10 11 10 14 2 9 -7 -4 -13 -3 -13 1 0 5 6 15 13 22 10
10 9 11 -4 6 -26 -10 -31 10 -9 35 24 28 24 27 5 27 -8 0 -12 -4 -9 -9 3 -4 1
-8 -5 -8 -17 0 -24 22 -10 31 8 5 9 9 3 9 -6 0 -12 10 -12 23 0 12 -1 27 -2
32 -5 22 1 34 14 29 16 -6 33 15 19 25 -5 3 -10 17 -11 31 0 14 -6 26 -12 28
-12 4 -14 32 -1 32 5 0 12 -6 15 -12 3 -7 3 -1 1 14 -2 15 1 30 6 33 5 4 9 15
9 25 0 14 -5 18 -17 13 -14 -5 -12 0 7 24 14 18 26 32 28 32 1 1 2 -287 2
-639z m-30 564 c0 -3 -7 -12 -15 -20 -12 -13 -15 -13 -15 -1 0 7 3 17 7 20 8
8 23 9 23 1z m-3573 -29 c268 -14 571 -29 673 -35 102 -5 206 -10 231 -10 34
0 49 -4 53 -16 4 -9 5 -18 3 -20 -2 -2 -323 14 -715 34 -628 33 -714 40 -729
55 -10 9 -14 17 -11 17 4 0 226 -11 495 -25z m-207 -40 c63 -3 151 -8 195 -10
44 -3 253 -14 465 -25 475 -24 520 -28 537 -41 17 -14 6 -31 -15 -25 -10 3
-325 21 -702 41 -377 21 -697 42 -712 47 -51 19 -31 30 45 24 39 -3 124 -8
187 -11z m5810 1 c0 -2 -7 -6 -15 -10 -8 -3 -15 -1 -15 4 0 6 7 10 15 10 8 0
15 -2 15 -4z m74 -2 c9 -3 13 -10 10 -15 -8 -14 -21 -11 -28 6 -6 17 -4 18 18
9z m134 -11 c2 -7 -4 -13 -15 -13 -14 0 -15 2 -4 9 11 7 10 10 -5 14 -18 6
-18 6 0 4 11 -1 21 -8 24 -14z m838 -5 c4 -7 3 -8 -4 -4 -7 4 -12 3 -12 -2 0
-12 -30 -25 -38 -17 -6 5 27 34 40 35 4 0 10 -5 14 -12z m-716 -8 c0 -5 -4
-10 -9 -10 -6 0 -13 5 -16 10 -3 6 1 10 9 10 9 0 16 -4 16 -10z m175 -10 c-3
-5 -14 -10 -23 -10 -15 0 -15 2 -2 10 20 13 33 13 25 0z m242 -12 c-3 -8 -6
-5 -6 6 -1 11 2 17 5 13 3 -3 4 -12 1 -19z m-6537 -3 c63 -3 149 -8 190 -11
120 -8 952 -54 982 -54 23 0 33 -10 64 -62 20 -35 37 -70 37 -78 0 -114 -4
-150 -17 -150 -8 0 -16 7 -20 15 -3 8 -1 15 4 15 6 0 10 5 10 11 0 5 -4 7 -10
4 -6 -3 -7 1 -4 9 3 9 11 16 18 16 6 0 4 5 -4 10 -21 14 -30 12 -30 -5 0 -8
-5 -15 -11 -15 -7 0 -5 10 5 25 14 21 14 24 1 19 -8 -4 -15 -1 -15 5 0 6 -7
11 -15 11 -8 0 -12 -6 -9 -14 3 -7 -2 -16 -12 -20 -11 -4 -15 -2 -11 7 3 7 -4
19 -14 25 -15 10 -19 9 -19 0 0 -9 -3 -8 -10 2 -6 10 -10 11 -10 3 0 -7 -4
-13 -10 -13 -5 0 -7 8 -4 18 5 15 4 15 -6 -1 -9 -14 -15 -15 -25 -7 -7 6 -17
10 -21 9 -5 -1 -13 0 -19 1 -5 1 -36 2 -67 2 -32 0 -58 3 -58 7 0 3 -35 6 -78
6 -42 0 -111 3 -152 7 -41 3 -109 9 -150 13 -41 4 -92 7 -112 7 -21 1 -38 6
-38 12 0 6 -4 5 -9 -3 -7 -11 -15 -11 -42 -2 -19 6 -35 8 -37 3 -1 -5 -19 -6
-40 -3 -20 4 -53 7 -72 7 -19 -1 -38 4 -42 9 -5 6 -8 5 -8 -3 0 -7 -5 -10 -11
-7 -6 4 -29 9 -52 10 -23 2 -64 6 -92 9 -27 3 -79 7 -115 10 -36 2 -72 7 -80
9 -8 3 -22 8 -30 10 -8 3 -1 6 15 6 l30 1 -3 66 -4 66 59 -6 c32 -3 110 -8
173 -11z m6890 11 c0 -11 -19 -15 -25 -6 -3 5 1 10 9 10 9 0 16 -2 16 -4z
m190 -16 c0 -5 -7 -10 -15 -10 -8 0 -15 5 -15 10 0 6 7 10 15 10 8 0 15 -4 15
-10z m-341 -21 c-16 -10 -23 -4 -14 10 3 6 11 8 17 5 6 -4 5 -9 -3 -15z m-50
-18 c6 -10 7 -22 3 -26 -4 -4 3 -4 15 -1 12 4 24 3 26 -1 3 -4 -8 -9 -25 -10
-23 -2 -29 1 -24 12 4 10 -1 15 -14 15 -11 0 -20 7 -20 15 0 21 27 19 39 -4z
m65 -3 c-5 -8 -2 -9 10 -5 10 4 15 3 11 -3 -7 -12 -35 -13 -35 -2 0 9 10 22
17 22 2 0 1 -5 -3 -12z m-124 -2 c0 -3 -4 -8 -10 -11 -5 -3 -10 -1 -10 4 0 6
5 11 10 11 6 0 10 -2 10 -4z m227 -3 c-4 -3 -1 -13 6 -22 11 -14 10 -14 -5 -2
-16 12 -16 31 -1 31 4 0 3 -3 0 -7z m166 1 c10 -10 -5 -34 -22 -34 -13 0 -13
2 -2 9 7 5 10 14 7 20 -7 11 6 16 17 5z m-63 -18 c0 -3 -4 -8 -10 -11 -5 -3
-10 -1 -10 4 0 6 5 11 10 11 6 0 10 -2 10 -4z m-121 -32 c-15 -18 -22 -13 -13
10 3 9 10 13 16 10 5 -3 4 -12 -3 -20z m-205 -8 c-3 -8 -1 -24 6 -35 6 -12 7
-21 2 -21 -16 0 -32 46 -19 59 15 15 17 14 11 -3z m118 -25 c-4 -12 -7 -11
-12 5 -6 16 -8 13 -15 -14 -5 -26 -10 -31 -19 -22 -8 10 -8 14 2 17 6 3 12 16
12 29 0 21 2 23 19 12 11 -7 17 -18 13 -27z m28 29 c0 -5 -2 -10 -4 -10 -3 0
-8 5 -11 10 -3 6 -1 10 4 10 6 0 11 -4 11 -10z m130 -15 c0 -8 -4 -15 -10 -15
-5 0 -7 7 -4 15 4 8 8 15 10 15 2 0 4 -7 4 -15z m-235 -15 c3 -5 1 -10 -4 -10
-6 0 -11 5 -11 10 0 6 2 10 4 10 3 0 8 -4 11 -10z m130 -10 c16 -17 16 -20 3
-15 -9 4 -19 13 -22 21 -7 19 -2 18 19 -6z m-281 -5 c-4 -8 -11 -15 -16 -15
-6 0 -5 6 2 15 7 8 14 15 16 15 2 0 1 -7 -2 -15z m256 -6 c0 -5 -4 -9 -10 -9
-5 0 -10 7 -10 16 0 8 5 12 10 9 6 -3 10 -10 10 -16z m70 6 c-7 -9 -15 -13
-19 -10 -3 3 1 10 9 15 21 14 24 12 10 -5z m-105 -15 c3 -5 1 -10 -4 -10 -6 0
-11 5 -11 10 0 6 2 10 4 10 3 0 8 -4 11 -10z m-171 -26 c21 -3 26 -1 20 8 -6
10 -5 11 7 1 8 -7 32 -14 52 -17 29 -4 37 -1 38 12 1 15 2 15 6 -1 3 -13 11
-15 31 -10 24 5 25 4 14 -9 -13 -16 -53 -28 -104 -31 -16 -1 -28 -5 -28 -8 0
-3 -21 -4 -46 -1 -36 3 -45 1 -39 -8 6 -10 4 -11 -6 -4 -8 5 -22 7 -33 5 -12
-2 -16 1 -11 10 6 9 1 11 -19 7 -20 -4 -26 -1 -26 13 0 16 21 30 44 28 5 0 13
5 17 13 7 10 9 10 9 1 0 -7 9 -13 20 -13 14 0 18 5 14 18 -4 12 -3 13 3 4 5
-7 22 -15 37 -18z m-7254 -14 c0 -5 -5 -10 -11 -10 -5 0 -7 5 -4 10 3 6 8 10
11 10 2 0 4 -4 4 -10z m0 -30 c0 -5 -4 -10 -10 -10 -5 0 -10 5 -10 10 0 6 5
10 10 10 6 0 10 -4 10 -10z m1250 0 c0 -5 -2 -10 -4 -10 -3 0 -8 5 -11 10 -3
6 -1 10 4 10 6 0 11 -4 11 -10z m-1250 -30 c0 -5 -2 -10 -4 -10 -3 0 -8 5 -11
10 -3 6 -1 10 4 10 6 0 11 -4 11 -10z m1610 0 c0 -5 -4 -10 -10 -10 -5 0 -10
5 -10 10 0 6 5 10 10 10 6 0 10 -4 10 -10z m5494 -16 c5 -14 4 -15 -9 -4 -17
14 -19 20 -6 20 5 0 12 -7 15 -16z m46 -4 c0 -5 -2 -10 -4 -10 -3 0 -8 5 -11
10 -3 6 -1 10 4 10 6 0 11 -4 11 -10z m-7150 -40 c0 -25 -3 -28 -27 -26 -35 4
-39 19 -12 45 27 25 39 19 39 -19z m1675 19 c11 -17 -1 -21 -15 -4 -8 9 -8 15
-2 15 6 0 14 -5 17 -11z m79 -10 c-3 -5 0 -9 7 -9 7 0 9 -3 6 -6 -7 -8 -37 14
-37 27 0 5 7 6 15 3 8 -4 12 -10 9 -15z m5993 -41 c-3 -8 -6 -5 -6 6 -1 11 2
17 5 13 3 -3 4 -12 1 -19z m-6125 -14 c-3 -17 -7 -22 -12 -13 -9 13 -2 39 10
39 4 0 5 -12 2 -26z m111 11 c-3 -9 -8 -14 -10 -11 -3 3 -2 9 2 15 9 16 15 13
8 -4z m-23 -4 c0 -6 -4 -12 -8 -15 -5 -3 -9 1 -9 9 0 8 4 15 9 15 4 0 8 -4 8
-9z m64 -25 c-10 -8 -21 -12 -23 -10 -3 2 4 11 15 18 10 8 21 12 23 10 3 -2
-4 -11 -15 -18z m-1774 -7 c0 -6 -4 -7 -10 -4 -5 3 -10 11 -10 16 0 6 5 7 10
4 6 -3 10 -11 10 -16z m1740 5 c0 -8 -19 -13 -24 -6 -3 5 1 9 9 9 8 0 15 -2
15 -3z m208 -67 c-2 -39 -8 -61 -16 -63 -7 -1 -8 0 -2 3 5 2 10 12 10 21 0 13
-2 14 -9 4 -11 -19 -20 17 -13 53 3 19 7 23 13 13 6 -9 9 -9 9 -1 0 6 -4 15
-10 18 -16 10 -12 25 5 18 12 -4 15 -19 13 -66z m-323 43 c-4 -6 12 -10 39
-10 43 0 59 -11 36 -25 -17 -10 -110 -22 -110 -14 0 4 -13 4 -28 -1 -26 -7
-28 -6 -25 14 4 17 16 25 46 33 23 5 43 11 45 12 2 0 0 -3 -3 -9z m-2787 -27
c-10 -2 -28 -2 -40 0 -13 2 -5 4 17 4 22 1 32 -1 23 -4z m105 -10 c-13 -2 -35
-2 -50 0 -16 2 -5 4 22 4 28 0 40 -2 28 -4z m130 -10 c-13 -2 -35 -2 -50 0
-16 2 -5 4 22 4 28 0 40 -2 28 -4z m105 -10 c-16 -2 -40 -2 -55 0 -16 2 -3 4
27 4 30 0 43 -2 28 -4z m120 -10 c-16 -2 -40 -2 -55 0 -16 2 -3 4 27 4 30 0
43 -2 28 -4z m693 -20 c-12 -20 -14 -14 -5 12 4 9 9 14 11 11 3 -2 0 -13 -6
-23z m-578 10 c-13 -2 -35 -2 -50 0 -16 2 -5 4 22 4 28 0 40 -2 28 -4z m115
-10 c-15 -2 -42 -2 -60 0 -18 2 -6 4 27 4 33 0 48 -2 33 -4z m110 -10 c-16 -2
-40 -2 -55 0 -16 2 -3 4 27 4 30 0 43 -2 28 -4z m120 -10 c-15 -2 -42 -2 -60
0 -18 2 -6 4 27 4 33 0 48 -2 33 -4z m110 -10 c-16 -2 -40 -2 -55 0 -16 2 -3
4 27 4 30 0 43 -2 28 -4z m129 -42 c-1 -28 -5 -53 -9 -56 -3 -4 -6 0 -5 7 0 7
-1 28 -1 46 -2 31 -4 32 -44 34 l-43 1 45 7 c25 4 48 8 52 8 5 1 7 -20 5 -47z
m1953 9 c0 -17 -5 -30 -12 -30 -8 0 -13 13 -13 30 0 17 5 30 13 30 7 0 12 -13
12 -30z m2500 10 c0 -5 -9 -14 -20 -20 -16 -8 -20 -8 -20 4 0 13 13 23 33 25
4 1 7 -3 7 -9z m-3902 -37 c-16 -2 -40 -2 -55 0 -16 2 -3 4 27 4 30 0 43 -2
28 -4z m197 -13 c68 -7 69 -7 15 -7 -30 0 -84 3 -120 7 -61 7 -62 7 -15 7 28
0 82 -3 120 -7z m1205 -13 c0 -8 -7 -14 -15 -14 -16 0 -19 9 -8 20 11 11 23 8
23 -6z m-980 -7 c62 -7 62 -7 15 -7 -27 -1 -77 3 -110 7 -54 6 -56 7 -15 7 25
1 74 -3 110 -7z m158 -17 c-15 -2 -42 -2 -60 0 -18 2 -6 4 27 4 33 0 48 -2 33
-4z m-1130 -28 c-3 -3 -9 2 -12 12 -6 14 -5 15 5 6 7 -7 10 -15 7 -18z m1427
6 c99 -10 166 -19 148 -20 -31 -1 -357 26 -398 33 -61 10 95 2 250 -13z m525
4 c0 -9 -6 -12 -15 -9 -8 4 -15 10 -15 15 0 5 7 9 15 9 8 0 15 -7 15 -15z
m-252 -32 c-15 -2 -42 -2 -60 0 -18 2 -6 4 27 4 33 0 48 -2 33 -4z m247 -161
c-14 -14 -23 17 -16 55 5 23 5 40 1 38 -4 -3 -11 6 -14 19 -5 22 -13 25 -98
34 l-93 10 95 -4 c55 -3 101 0 110 5 13 9 15 -1 18 -71 2 -44 0 -83 -3 -86z
m-4532 131 c-7 -2 -19 -2 -25 0 -7 3 -2 5 12 5 14 0 19 -2 13 -5z m84 -9 c-3
-3 -12 -4 -19 -1 -8 3 -5 6 6 6 11 1 17 -2 13 -5z m106 -11 c-7 -2 -21 -2 -30
0 -10 3 -4 5 12 5 17 0 24 -2 18 -5z m80 -10 c-7 -2 -21 -2 -30 0 -10 3 -4 5
12 5 17 0 24 -2 18 -5z m94 -9 c-3 -3 -12 -4 -19 -1 -8 3 -5 6 6 6 11 1 17 -2
13 -5z m90 -10 c-3 -3 -12 -4 -19 -1 -8 3 -5 6 6 6 11 1 17 -2 13 -5z m2133
-21 c0 -20 -3 -24 -11 -16 -7 7 -9 19 -6 27 10 24 17 19 17 -11z m2618 20
c-10 -2 -28 -2 -40 0 -13 2 -5 4 17 4 22 1 32 -1 23 -4z m1815 -36 c-4 -6 -10
-2 -14 9 -12 31 -9 40 6 20 8 -10 11 -24 8 -29z m-6480 26 c-7 -2 -21 -2 -30
0 -10 3 -4 5 12 5 17 0 24 -2 18 -5z m94 -9 c-3 -3 -12 -4 -19 -1 -8 3 -5 6 6
6 11 1 17 -2 13 -5z m266 -31 c-7 -2 -21 -2 -30 0 -10 3 -4 5 12 5 17 0 24 -2
18 -5z m71 -18 c-4 -8 -7 -15 -9 -15 -2 0 -5 7 -9 15 -3 9 0 15 9 15 9 0 12
-6 9 -15z m1614 -20 c1 -14 -2 -25 -6 -25 -4 0 -8 11 -8 25 -2 33 11 33 14 0z
m1951 -22 c0 -11 -3 -13 -6 -5 -2 6 -9 10 -14 6 -5 -3 -9 0 -9 5 0 6 7 11 15
11 8 0 15 -8 14 -17z m-3122 1 c-3 -3 -12 -4 -19 -1 -8 3 -5 6 6 6 11 1 17 -2
13 -5z m96 -11 c-7 -2 -21 -2 -30 0 -10 3 -4 5 12 5 17 0 24 -2 18 -5z m95
-10 c-10 -2 -26 -2 -35 0 -10 3 -2 5 17 5 19 0 27 -2 18 -5z m100 -10 c-10 -2
-26 -2 -35 0 -10 3 -2 5 17 5 19 0 27 -2 18 -5z m875 -8 c-3 -9 -8 -14 -10
-11 -3 3 -2 9 2 15 9 16 15 13 8 -4z m1946 -16 c-9 -5 -15 -4 -18 2 -2 6 3 15
10 20 9 5 15 4 18 -2 2 -6 -3 -15 -10 -20z m-2746 14 c-7 -2 -19 -2 -25 0 -7
3 -2 5 12 5 14 0 19 -2 13 -5z m95 -10 c-10 -2 -26 -2 -35 0 -10 3 -2 5 17 5
19 0 27 -2 18 -5z m100 -10 c-10 -2 -28 -2 -40 0 -13 2 -5 4 17 4 22 1 32 -1
23 -4z m75 -10 c-7 -2 -21 -2 -30 0 -10 3 -4 5 12 5 17 0 24 -2 18 -5z m2475
-85 c-10 -8 -10 -11 0 -15 15 -6 16 -63 1 -63 -5 0 -7 5 -4 10 4 6 2 16 -4 23
-5 7 -9 26 -9 42 1 17 -2 40 -6 52 -5 15 -2 24 11 32 16 9 18 5 21 -31 2 -26
-2 -44 -10 -50z m-2390 75 c-10 -2 -26 -2 -35 0 -10 3 -2 5 17 5 19 0 27 -2
18 -5z m85 -10 c-7 -2 -21 -2 -30 0 -10 3 -4 5 12 5 17 0 24 -2 18 -5z m367
-3 c0 -5 -5 -10 -11 -10 -5 0 -7 5 -4 10 3 6 8 10 11 10 2 0 4 -4 4 -10z
m-272 -7 c-10 -2 -26 -2 -35 0 -10 3 -2 5 17 5 19 0 27 -2 18 -5z m90 -10
c-10 -2 -26 -2 -35 0 -10 3 -2 5 17 5 19 0 27 -2 18 -5z m100 -10 c-10 -2 -26
-2 -35 0 -10 3 -2 5 17 5 19 0 27 -2 18 -5z m82 -23 c0 -16 -4 -30 -10 -30 -5
0 -10 9 -10 20 0 12 -7 20 -17 21 -15 0 -15 2 2 9 32 14 35 12 35 -20z m528
-47 c-10 -2 -26 -2 -35 0 -10 3 -2 5 17 5 19 0 27 -2 18 -5z m100 -10 c-10 -2
-28 -2 -40 0 -13 2 -5 4 17 4 22 1 32 -1 23 -4z m80 -10 c-10 -2 -26 -2 -35 0
-10 3 -2 5 17 5 19 0 27 -2 18 -5z m-721 -35 c-3 -7 -5 -2 -5 12 0 14 2 19 5
13 2 -7 2 -19 0 -25z m811 25 c-10 -2 -26 -2 -35 0 -10 3 -2 5 17 5 19 0 27
-2 18 -5z m90 -10 c-10 -2 -28 -2 -40 0 -13 2 -5 4 17 4 22 1 32 -1 23 -4z
m90 -10 c-10 -2 -28 -2 -40 0 -13 2 -5 4 17 4 22 1 32 -1 23 -4z m75 -10 c-7
-2 -21 -2 -30 0 -10 3 -4 5 12 5 17 0 24 -2 18 -5z m897 -1 c0 -5 -7 -9 -15
-9 -8 0 -12 4 -9 9 3 4 9 8 15 8 5 0 9 -4 9 -8z m-797 -9 c-13 -2 -33 -2 -45
0 -13 2 -3 4 22 4 25 0 35 -2 23 -4z m80 -10 c-7 -2 -21 -2 -30 0 -10 3 -4 5
12 5 17 0 24 -2 18 -5z m100 -10 c-13 -2 -33 -2 -45 0 -13 2 -3 4 22 4 25 0
35 -2 23 -4z m613 -18 c2 -27 -10 -34 -19 -11 -4 10 9 36 18 36 0 0 1 -11 1
-25z m-518 8 c-10 -2 -28 -2 -40 0 -13 2 -5 4 17 4 22 1 32 -1 23 -4z m80 -10
c-10 -2 -26 -2 -35 0 -10 3 -2 5 17 5 19 0 27 -2 18 -5z m80 -10 c-10 -2 -26
-2 -35 0 -10 3 -2 5 17 5 19 0 27 -2 18 -5z m90 -10 c-10 -2 -26 -2 -35 0 -10
3 -2 5 17 5 19 0 27 -2 18 -5z m100 -10 c-10 -2 -28 -2 -40 0 -13 2 -5 4 17 4
22 1 32 -1 23 -4z m85 -10 c-13 -2 -33 -2 -45 0 -13 2 -3 4 22 4 25 0 35 -2
23 -4z m87 -68 c0 -62 -2 -73 -15 -69 -17 7 -20 24 -5 24 6 0 6 9 1 23 -32 86
-32 97 1 97 16 0 18 -9 18 -75z m-1950 30 c0 -14 -4 -25 -10 -25 -5 0 -10 11
-10 25 0 14 5 25 10 25 6 0 10 -11 10 -25z m-1623 -7 c-3 -8 -6 -5 -6 6 -1 11
2 17 5 13 3 -3 4 -12 1 -19z m4210 -34 c-3 -3 -12 -4 -19 -1 -8 3 -5 6 6 6 11
1 17 -2 13 -5z m81 -11 c-10 -2 -28 -2 -40 0 -13 2 -5 4 17 4 22 1 32 -1 23
-4z m90 -10 c-10 -2 -28 -2 -40 0 -13 2 -5 4 17 4 22 1 32 -1 23 -4z m90 -10
c-10 -2 -28 -2 -40 0 -13 2 -5 4 17 4 22 1 32 -1 23 -4z m85 -10 c-13 -2 -33
-2 -45 0 -13 2 -3 4 22 4 25 0 35 -2 23 -4z m-2938 -13 c3 -5 1 -10 -4 -10 -6
0 -11 5 -11 10 0 6 2 10 4 10 3 0 8 -4 11 -10z m3023 3 c-10 -2 -28 -2 -40 0
-13 2 -5 4 17 4 22 1 32 -1 23 -4z m95 -10 c-13 -2 -33 -2 -45 0 -13 2 -3 4
22 4 25 0 35 -2 23 -4z m85 -10 c-10 -2 -26 -2 -35 0 -10 3 -2 5 17 5 19 0 27
-2 18 -5z m-1248 -81 c0 -63 -3 -79 -15 -79 -8 0 -15 4 -15 8 0 4 -3 14 -6 23
-4 11 -1 16 10 16 12 0 16 10 16 40 0 22 -4 40 -10 40 -5 0 -7 7 -4 15 14 36
24 9 24 -63z m1338 71 c-10 -2 -28 -2 -40 0 -13 2 -5 4 17 4 22 1 32 -1 23 -4z
m-3925 -10 c-7 -2 -19 -2 -25 0 -7 3 -2 5 12 5 14 0 19 -2 13 -5z m635 -28 c2
-19 -1 -35 -6 -35 -6 0 -9 51 -3 68 4 10 7 -3 9 -33z m3370 28 c-10 -2 -28 -2
-40 0 -13 2 -5 4 17 4 22 1 32 -1 23 -4z m-3941 -9 c-3 -3 -12 -4 -19 -1 -8 3
-5 6 6 6 11 1 17 -2 13 -5z m4098 -4 c40 -6 43 -7 15 -8 -19 0 -60 3 -90 8
-48 6 -50 7 -15 8 22 0 63 -3 90 -8z m118 -17 c-13 -2 -33 -2 -45 0 -13 2 -3
4 22 4 25 0 35 -2 23 -4z m95 -10 c-10 -2 -28 -2 -40 0 -13 2 -5 4 17 4 22 1
32 -1 23 -4z m137 -13 c40 -6 43 -7 15 -8 -19 0 -57 3 -85 8 -40 6 -43 7 -15
8 19 0 58 -3 85 -8z m128 -17 c-13 -2 -33 -2 -45 0 -13 2 -3 4 22 4 25 0 35
-2 23 -4z m-4004 -64 c-1 -33 -5 -55 -10 -48 -4 7 -5 18 -2 25 3 8 0 27 -5 43
-6 16 -8 32 -5 35 17 17 23 0 22 -55z m4089 54 c-10 -2 -28 -2 -40 0 -13 2 -5
4 17 4 22 1 32 -1 23 -4z m80 -10 c-10 -2 -28 -2 -40 0 -13 2 -5 4 17 4 22 1
32 -1 23 -4z m95 -10 c-13 -2 -33 -2 -45 0 -13 2 -3 4 22 4 25 0 35 -2 23 -4z
m-2313 -68 c0 -8 -2 -15 -4 -15 -2 0 -6 7 -10 15 -3 8 -1 15 4 15 6 0 10 -7
10 -15z m-1143 -31 c-3 -3 -12 -4 -19 -1 -8 3 -5 6 6 6 11 1 17 -2 13 -5z m70
-10 c-3 -3 -12 -4 -19 -1 -8 3 -5 6 6 6 11 1 17 -2 13 -5z m70 -10 c-3 -3 -12
-4 -19 -1 -8 3 -5 6 6 6 11 1 17 -2 13 -5z m80 -10 c-3 -3 -12 -4 -19 -1 -8 3
-5 6 6 6 11 1 17 -2 13 -5z m900 -16 c-3 -8 -6 -5 -6 6 -1 11 2 17 5 13 3 -3
4 -12 1 -19z m3496 15 c-13 -2 -33 -2 -45 0 -13 2 -3 4 22 4 25 0 35 -2 23 -4z
m-4326 -9 c-3 -3 -12 -4 -19 -1 -8 3 -5 6 6 6 11 1 17 -2 13 -5z m4513 -8 c52
-8 79 -14 60 -14 -19 0 -78 5 -130 12 -52 8 -79 14 -60 14 19 0 78 -5 130 -12z
m2150 -29 c0 -18 -2 -19 -10 -7 -13 20 -13 43 0 35 6 -3 10 -16 10 -28z
m-5810 -188 c0 -104 -4 -189 -9 -189 -5 0 -14 6 -20 14 -13 15 -4 49 10 40 5
-3 9 0 9 5 0 6 -4 11 -10 11 -5 0 -10 7 -10 15 0 8 4 15 9 15 5 0 8 18 8 39
-1 21 -5 37 -9 34 -5 -2 -8 2 -8 11 0 8 6 17 13 20 9 5 9 7 -1 12 -10 5 -10 9
0 22 8 10 9 13 1 9 -7 -5 -14 4 -18 23 -5 22 -13 30 -28 31 -16 1 -14 3 8 8
26 5 30 11 33 44 2 20 7 35 13 32 5 -4 9 -88 9 -196z m3970 181 c82 -14 -14
-10 -120 5 l-95 14 85 -6 c47 -3 105 -9 130 -13z m-4527 3 c-7 -2 -19 -2 -25
0 -7 3 -2 5 12 5 14 0 19 -2 13 -5z m-3016 -25 c-3 -8 -6 -5 -6 6 -1 11 2 17
5 13 3 -3 4 -12 1 -19z m3156 5 c-7 -2 -19 -2 -25 0 -7 3 -2 5 12 5 14 0 19
-2 13 -5z m4612 -8 c55 -7 82 -13 60 -13 -22 0 -85 6 -140 13 -55 7 -82 13
-60 13 22 0 85 -6 140 -13z m-4548 -1 c-3 -3 -12 -4 -19 -1 -8 3 -5 6 6 6 11
1 17 -2 13 -5z m-1597 -29 c0 -14 -4 -25 -10 -25 -5 0 -10 11 -10 25 0 14 5
25 10 25 6 0 10 -11 10 -25z m7790 9 c0 -2 -7 -4 -15 -4 -8 0 -15 4 -15 10 0
5 7 7 15 4 8 -4 15 -8 15 -10z m-6037 -1 c-7 -2 -21 -2 -30 0 -10 3 -4 5 12 5
17 0 24 -2 18 -5z m4555 0 c-10 -2 -28 -2 -40 0 -13 2 -5 4 17 4 22 1 32 -1
23 -4z m-6308 -73 c0 -5 -5 -10 -11 -10 -5 0 -7 5 -4 10 3 6 8 10 11 10 2 0 4
-4 4 -10z m2687 -56 c-3 -3 -12 -4 -19 -1 -8 3 -5 6 6 6 11 1 17 -2 13 -5z
m76 -11 c-7 -2 -19 -2 -25 0 -7 3 -2 5 12 5 14 0 19 -2 13 -5z m80 -10 c-7 -2
-19 -2 -25 0 -7 3 -2 5 12 5 14 0 19 -2 13 -5z m70 -10 c-7 -2 -19 -2 -25 0
-7 3 -2 5 12 5 14 0 19 -2 13 -5z m70 -10 c-7 -2 -19 -2 -25 0 -7 3 -2 5 12 5
14 0 19 -2 13 -5z m-2983 -13 c0 -5 -5 -10 -11 -10 -5 0 -7 5 -4 10 3 6 8 10
11 10 2 0 4 -4 4 -10z m3053 3 c-7 -2 -19 -2 -25 0 -7 3 -2 5 12 5 14 0 19 -2
13 -5z m80 -10 c-7 -2 -19 -2 -25 0 -7 3 -2 5 12 5 14 0 19 -2 13 -5z m74 -9
c-3 -3 -12 -4 -19 -1 -8 3 -5 6 6 6 11 1 17 -2 13 -5z m70 -10 c-3 -3 -12 -4
-19 -1 -8 3 -5 6 6 6 11 1 17 -2 13 -5z m-3277 -35 c0 -17 -4 -28 -10 -24 -5
3 -10 17 -10 31 0 13 5 24 10 24 6 0 10 -14 10 -31z m3343 24 c-7 -2 -19 -2
-25 0 -7 3 -2 5 12 5 14 0 19 -2 13 -5z m80 -10 c-7 -2 -19 -2 -25 0 -7 3 -2
5 12 5 14 0 19 -2 13 -5z m70 -10 c-7 -2 -19 -2 -25 0 -7 3 -2 5 12 5 14 0 19
-2 13 -5z m80 -10 c-7 -2 -19 -2 -25 0 -7 3 -2 5 12 5 14 0 19 -2 13 -5z m70
-10 c-7 -2 -21 -2 -30 0 -10 3 -4 5 12 5 17 0 24 -2 18 -5z m70 -10 c-7 -2
-21 -2 -30 0 -10 3 -4 5 12 5 17 0 24 -2 18 -5z m70 -10 c-7 -2 -19 -2 -25 0
-7 3 -2 5 12 5 14 0 19 -2 13 -5z m70 -10 c-7 -2 -19 -2 -25 0 -7 3 -2 5 12 5
14 0 19 -2 13 -5z m80 -10 c-7 -2 -21 -2 -30 0 -10 3 -4 5 12 5 17 0 24 -2 18
-5z m70 -10 c-7 -2 -19 -2 -25 0 -7 3 -2 5 12 5 14 0 19 -2 13 -5z m75 -10
c-10 -2 -26 -2 -35 0 -10 3 -2 5 17 5 19 0 27 -2 18 -5z m-2128 -18 c0 -2 -7
-5 -15 -9 -9 -3 -15 0 -15 9 0 9 6 12 15 9 8 -4 15 -7 15 -9z m2203 8 c-7 -2
-21 -2 -30 0 -10 3 -4 5 12 5 17 0 24 -2 18 -5z m70 -10 c-7 -2 -21 -2 -30 0
-10 3 -4 5 12 5 17 0 24 -2 18 -5z m70 -10 c-7 -2 -19 -2 -25 0 -7 3 -2 5 12
5 14 0 19 -2 13 -5z m70 -10 c-7 -2 -19 -2 -25 0 -7 3 -2 5 12 5 14 0 19 -2
13 -5z m-2413 -13 c0 -5 -5 -10 -11 -10 -5 0 -7 5 -4 10 3 6 8 10 11 10 2 0 4
-4 4 -10z m0 -40 c0 -5 -7 -10 -16 -10 -8 0 -12 5 -9 10 3 6 10 10 16 10 5 0
9 -4 9 -10z m5830 -7 c0 -10 -19 -40 -21 -33 0 3 -2 13 -4 23 -2 9 3 17 11 17
8 0 14 -3 14 -7z m-7780 -48 c0 -8 -4 -15 -10 -15 -5 0 -10 7 -10 15 0 8 5 15
10 15 6 0 10 -7 10 -15z m1950 -31 c0 -17 -4 -23 -12 -18 -10 6 -10 4 0 -7 14
-15 16 -69 2 -69 -5 0 -16 14 -25 30 -9 17 -11 30 -5 30 5 0 10 7 10 15 0 8 5
15 10 15 6 0 9 3 9 8 -2 12 1 22 6 22 3 0 5 -12 5 -26z m-273 0 c-3 -3 -12 -4
-19 -1 -8 3 -5 6 6 6 11 1 17 -2 13 -5z m3706 -1 c-7 -2 -19 -2 -25 0 -7 3 -2
5 12 5 14 0 19 -2 13 -5z m80 -10 c-7 -2 -21 -2 -30 0 -10 3 -4 5 12 5 17 0
24 -2 18 -5z m70 -10 c-7 -2 -21 -2 -30 0 -10 3 -4 5 12 5 17 0 24 -2 18 -5z
m70 -10 c-7 -2 -21 -2 -30 0 -10 3 -4 5 12 5 17 0 24 -2 18 -5z m70 -10 c-7
-2 -21 -2 -30 0 -10 3 -4 5 12 5 17 0 24 -2 18 -5z m80 -10 c-7 -2 -21 -2 -30
0 -10 3 -4 5 12 5 17 0 24 -2 18 -5z m60 -10 c-7 -2 -19 -2 -25 0 -7 3 -2 5
12 5 14 0 19 -2 13 -5z m-1343 -85 c0 -57 -3 -78 -10 -68 -5 8 -10 11 -10 7 0
-4 -8 -3 -19 2 -24 13 -33 47 -15 62 8 6 11 15 8 20 -3 5 5 10 18 10 16 1 18
3 6 6 -16 4 -16 5 0 23 9 10 18 19 20 19 1 1 2 -36 2 -81z m1428 75 c-10 -2
-26 -2 -35 0 -10 3 -2 5 17 5 19 0 27 -2 18 -5z m70 -10 c-10 -2 -26 -2 -35 0
-10 3 -2 5 17 5 19 0 27 -2 18 -5z m65 -10 c-7 -2 -19 -2 -25 0 -7 3 -2 5 12
5 14 0 19 -2 13 -5z m80 -10 c-7 -2 -21 -2 -30 0 -10 3 -4 5 12 5 17 0 24 -2
18 -5z m-4163 -13 c0 -5 -5 -10 -11 -10 -5 0 -7 5 -4 10 3 6 8 10 11 10 2 0 4
-4 4 -10z m4238 3 c-10 -2 -26 -2 -35 0 -10 3 -2 5 17 5 19 0 27 -2 18 -5z
m65 -10 c-7 -2 -21 -2 -30 0 -10 3 -4 5 12 5 17 0 24 -2 18 -5z m75 -10 c-10
-2 -26 -2 -35 0 -10 3 -2 5 17 5 19 0 27 -2 18 -5z m75 -10 c-7 -2 -21 -2 -30
0 -10 3 -4 5 12 5 17 0 24 -2 18 -5z m75 -10 c-10 -2 -26 -2 -35 0 -10 3 -2 5
17 5 19 0 27 -2 18 -5z m80 -10 c-10 -2 -28 -2 -40 0 -13 2 -5 4 17 4 22 1 32
-1 23 -4z m65 -10 c-7 -2 -21 -2 -30 0 -10 3 -4 5 12 5 17 0 24 -2 18 -5z m75
-10 c-10 -2 -26 -2 -35 0 -10 3 -2 5 17 5 19 0 27 -2 18 -5z m70 -10 c-10 -2
-26 -2 -35 0 -10 3 -2 5 17 5 19 0 27 -2 18 -5z m70 -10 c-10 -2 -26 -2 -35 0
-10 3 -2 5 17 5 19 0 27 -2 18 -5z m122 -12 c33 -6 37 -9 15 -9 -16 0 -50 3
-75 7 -33 6 -37 9 -15 9 17 0 50 -3 75 -7z m-2513 -30 c0 -10 -8 -23 -17 -29
-12 -7 -16 -5 -16 9 0 11 6 19 13 19 7 0 13 5 13 10 0 6 2 10 4 10 3 0 4 -8 3
-19z m2606 12 c-7 -2 -21 -2 -30 0 -10 3 -4 5 12 5 17 0 24 -2 18 -5z m-2591
-45 c-6 -6 -7 0 -4 19 5 21 7 23 10 9 2 -10 0 -22 -6 -28z m2666 35 c-10 -2
-26 -2 -35 0 -10 3 -2 5 17 5 19 0 27 -2 18 -5z m80 -10 c-10 -2 -28 -2 -40 0
-13 2 -5 4 17 4 22 1 32 -1 23 -4z m552 -3 c0 -5 -5 -10 -11 -10 -5 0 -7 5 -4
10 3 6 8 10 11 10 2 0 4 -4 4 -10z m-482 -7 c-10 -2 -26 -2 -35 0 -10 3 -2 5
17 5 19 0 27 -2 18 -5z m70 -10 c-10 -2 -26 -2 -35 0 -10 3 -2 5 17 5 19 0 27
-2 18 -5z m-3951 -9 c-3 -3 -12 -4 -19 -1 -8 3 -5 6 6 6 11 1 17 -2 13 -5z
m4016 -1 c-7 -2 -21 -2 -30 0 -10 3 -4 5 12 5 17 0 24 -2 18 -5z m-2945 -29
c2 -1 -6 -7 -17 -13 -17 -10 -20 -9 -15 4 4 8 1 15 -6 15 -6 0 -8 5 -5 10 5 8
12 7 23 -2 10 -7 19 -13 20 -14z m3025 19 c-7 -2 -21 -2 -30 0 -10 3 -4 5 12
5 17 0 24 -2 18 -5z m-5543 -25 c0 -17 -3 -19 -9 -10 -4 8 -12 13 -17 12 -5
-1 -10 3 -12 9 -2 6 6 11 17 11 15 0 21 -6 21 -22z m1567 16 c-3 -3 -12 -4
-19 -1 -8 3 -5 6 6 6 11 1 17 -2 13 -5z m4051 -1 c-10 -2 -28 -2 -40 0 -13 2
-5 4 17 4 22 1 32 -1 23 -4z m-3991 -9 c-3 -3 -12 -4 -19 -1 -8 3 -5 6 6 6 11
1 17 -2 13 -5z m4061 -1 c-10 -2 -26 -2 -35 0 -10 3 -2 5 17 5 19 0 27 -2 18
-5z m-3881 -29 c-3 -3 -12 -4 -19 -1 -8 3 -5 6 6 6 11 1 17 -2 13 -5z m713
-18 c0 -26 -16 -43 -28 -31 -4 4 -1 10 7 13 11 4 11 6 0 13 -11 7 -11 9 -1 9
7 0 10 5 7 10 -3 6 -1 10 4 10 6 0 11 -11 11 -24z m-643 8 c-3 -3 -12 -4 -19
-1 -8 3 -5 6 6 6 11 1 17 -2 13 -5z m120 -20 c-3 -3 -12 -4 -19 -1 -8 3 -5 6
6 6 11 1 17 -2 13 -5z m60 -10 c-3 -3 -12 -4 -19 -1 -8 3 -5 6 6 6 11 1 17 -2
13 -5z m461 -112 l-3 -44 -22 20 c-13 10 -20 22 -16 26 3 3 2 6 -4 6 -14 0
-23 34 -13 50 6 9 13 9 28 1 18 -9 20 -8 16 12 -4 20 -3 20 6 -3 6 -13 10 -44
8 -68z m-211 72 c-3 -3 -12 -4 -19 -1 -8 3 -5 6 6 6 11 1 17 -2 13 -5z m130
-20 c-3 -3 -12 -4 -19 -1 -8 3 -5 6 6 6 11 1 17 -2 13 -5z m3371 -39 c-3 -3
-9 2 -12 12 -6 14 -5 15 5 6 7 -7 10 -15 7 -18z m-3291 -80 c0 -8 -4 -15 -9
-15 -4 0 -8 7 -8 15 0 8 4 15 8 15 5 0 9 -7 9 -15z m1020 -61 c-3 -3 -12 -4
-19 -1 -8 3 -5 6 6 6 11 1 17 -2 13 -5z m60 -10 c-3 -3 -12 -4 -19 -1 -8 3 -5
6 6 6 11 1 17 -2 13 -5z m66 -11 c-7 -2 -19 -2 -25 0 -7 3 -2 5 12 5 14 0 19
-2 13 -5z m54 -9 c-3 -3 -12 -4 -19 -1 -8 3 -5 6 6 6 11 1 17 -2 13 -5z m190
-30 c-3 -3 -12 -4 -19 -1 -8 3 -5 6 6 6 11 1 17 -2 13 -5z m60 -10 c-3 -3 -12
-4 -19 -1 -8 3 -5 6 6 6 11 1 17 -2 13 -5z m120 -20 c-3 -3 -12 -4 -19 -1 -8
3 -5 6 6 6 11 1 17 -2 13 -5z m60 -10 c-3 -3 -12 -4 -19 -1 -8 3 -5 6 6 6 11
1 17 -2 13 -5z m70 -10 c-3 -3 -12 -4 -19 -1 -8 3 -5 6 6 6 11 1 17 -2 13 -5z
m-1699 -28 c3 -13 0 -16 -10 -10 -13 9 -18 10 -38 13 -5 0 -10 6 -10 12 0 19
55 5 58 -15z m1755 17 c-7 -2 -19 -2 -25 0 -7 3 -2 5 12 5 14 0 19 -2 13 -5z
m120 -20 c-7 -2 -19 -2 -25 0 -7 3 -2 5 12 5 14 0 19 -2 13 -5z m60 -10 c-7
-2 -19 -2 -25 0 -7 3 -2 5 12 5 14 0 19 -2 13 -5z m60 -10 c-7 -2 -19 -2 -25
0 -7 3 -2 5 12 5 14 0 19 -2 13 -5z m70 -10 c-7 -2 -19 -2 -25 0 -7 3 -2 5 12
5 14 0 19 -2 13 -5z m54 -9 c-3 -3 -12 -4 -19 -1 -8 3 -5 6 6 6 11 1 17 -2 13
-5z m66 -11 c-7 -2 -19 -2 -25 0 -7 3 -2 5 12 5 14 0 19 -2 13 -5z m60 -10
c-7 -2 -19 -2 -25 0 -7 3 -2 5 12 5 14 0 19 -2 13 -5z m1103 -79 c-9 -8 -16
-11 -16 -5 0 6 -7 8 -15 5 -8 -4 -15 -1 -15 5 0 6 6 11 14 11 9 0 12 7 9 20
-3 11 -9 17 -14 14 -5 -3 -6 2 -3 10 3 8 15 16 27 18 18 2 23 -3 25 -30 2 -19
-3 -38 -12 -48z m-1043 69 c-7 -2 -19 -2 -25 0 -7 3 -2 5 12 5 14 0 19 -2 13
-5z m70 -10 c-7 -2 -19 -2 -25 0 -7 3 -2 5 12 5 14 0 19 -2 13 -5z m60 -10
c-7 -2 -21 -2 -30 0 -10 3 -4 5 12 5 17 0 24 -2 18 -5z m54 -9 c-3 -3 -12 -4
-19 -1 -8 3 -5 6 6 6 11 1 17 -2 13 -5z m60 -10 c-3 -3 -12 -4 -19 -1 -8 3 -5
6 6 6 11 1 17 -2 13 -5z m66 -11 c-7 -2 -19 -2 -25 0 -7 3 -2 5 12 5 14 0 19
-2 13 -5z m54 -9 c-3 -3 -12 -4 -19 -1 -8 3 -5 6 6 6 11 1 17 -2 13 -5z m126
-21 c-7 -2 -19 -2 -25 0 -7 3 -2 5 12 5 14 0 19 -2 13 -5z m558 -27 c-8 -10
-8 -20 2 -39 9 -18 11 -42 7 -79 -4 -29 -6 -61 -4 -70 1 -10 -2 -18 -8 -18 -7
0 -6 -5 1 -14 8 -9 8 -16 2 -20 -12 -8 -25 29 -16 44 4 6 3 10 -2 9 -21 -4
-25 2 -9 14 16 12 16 15 4 28 -8 8 -13 21 -10 29 3 8 1 12 -3 8 -5 -4 -14 -3
-22 3 -10 9 -13 8 -14 -2 0 -8 -6 2 -13 21 -16 42 -6 59 30 52 l26 -5 -17 27
c-17 25 -17 26 0 19 14 -5 16 -3 10 7 -6 10 -4 12 8 7 9 -3 20 -1 24 5 5 9 8
9 11 0 2 -7 -1 -19 -7 -26z m-488 17 c-7 -2 -21 -2 -30 0 -10 3 -4 5 12 5 17
0 24 -2 18 -5z m60 -10 c-7 -2 -19 -2 -25 0 -7 3 -2 5 12 5 14 0 19 -2 13 -5z
m60 -10 c-7 -2 -19 -2 -25 0 -7 3 -2 5 12 5 14 0 19 -2 13 -5z m64 -9 c-3 -3
-12 -4 -19 -1 -8 3 -5 6 6 6 11 1 17 -2 13 -5z m56 -11 c-7 -2 -19 -2 -25 0
-7 3 -2 5 12 5 14 0 19 -2 13 -5z m60 -10 c-7 -2 -19 -2 -25 0 -7 3 -2 5 12 5
14 0 19 -2 13 -5z m70 -10 c-7 -2 -21 -2 -30 0 -10 3 -4 5 12 5 17 0 24 -2 18
-5z m97 -193 c0 -5 -4 -10 -9 -10 -6 0 -13 5 -16 10 -3 6 1 10 9 10 9 0 16 -4
16 -10z m18 -155 c6 -2 12 -11 12 -19 0 -13 -5 -14 -26 -5 -15 5 -29 7 -32 5
-7 -8 -42 13 -42 24 0 9 56 5 88 -5z"/>
<path d="M8788 5253 c34 -2 88 -2 120 0 31 2 3 3 -63 3 -66 0 -92 -1 -57 -3z"/>
<path d="M9073 5243 c32 -2 81 -2 110 0 29 2 3 3 -58 3 -60 0 -84 -1 -52 -3z"/>
<path d="M9343 5233 c31 -2 83 -2 115 0 31 2 5 3 -58 3 -63 0 -89 -1 -57 -3z"/>
<path d="M9593 5223 c26 -2 67 -2 90 0 23 2 2 3 -48 3 -49 0 -68 -1 -42 -3z"/>
<path d="M9858 5213 c34 -2 90 -2 125 0 34 2 6 3 -63 3 -69 0 -97 -1 -62 -3z"/>
<path d="M10108 5203 c28 -2 76 -2 105 0 28 2 5 3 -53 3 -58 0 -81 -1 -52 -3z"/>
<path d="M10278 5203 c7 -3 16 -2 19 1 4 3 -2 6 -13 5 -11 0 -14 -3 -6 -6z"/>
<path d="M10393 5193 c31 -2 83 -2 115 0 31 2 5 3 -58 3 -63 0 -89 -1 -57 -3z"/>
<path d="M10623 5183 c15 -2 39 -2 55 0 15 2 2 4 -28 4 -30 0 -43 -2 -27 -4z"/>
<path d="M11016 4794 c-5 -14 -4 -15 9 -4 17 14 19 20 6 20 -5 0 -12 -7 -15
-16z"/>
<path d="M11030 4449 c0 -5 5 -7 10 -4 6 3 10 8 10 11 0 2 -4 4 -10 4 -5 0
-10 -5 -10 -11z"/>
<path d="M11020 4136 c0 -9 5 -16 10 -16 6 0 10 4 10 9 0 6 -4 13 -10 16 -5 3
-10 -1 -10 -9z"/>
<path d="M11051 4134 c0 -11 3 -14 6 -6 3 7 2 16 -1 19 -3 4 -6 -2 -5 -13z"/>
<path d="M11000 3816 c0 -2 7 -9 15 -16 13 -11 14 -10 9 4 -5 14 -24 23 -24
12z"/>
<path d="M11045 3762 c-14 -10 -19 -46 -6 -37 6 3 11 13 11 21 0 9 5 12 12 8
7 -4 8 -3 4 4 -8 14 -8 14 -21 4z"/>
<path d="M11024 3684 c3 -9 6 -18 6 -20 0 -2 4 -4 9 -4 5 0 7 9 4 20 -3 11
-10 20 -15 20 -6 0 -7 -7 -4 -16z"/>
<path d="M11048 3543 c7 -3 16 -2 19 1 4 3 -2 6 -13 5 -11 0 -14 -3 -6 -6z"/>
<path d="M11056 3462 c-2 -4 -1 -14 3 -21 6 -9 11 -10 15 -2 4 6 2 11 -4 11
-6 0 -8 5 -5 10 3 6 4 10 1 10 -3 0 -7 -4 -10 -8z"/>
<path d="M11071 3254 c0 -11 3 -14 6 -6 3 7 2 16 -1 19 -3 4 -6 -2 -5 -13z"/>
<path d="M11025 3230 c-17 -7 -17 -9 -2 -9 9 -1 20 -1 24 -2 4 0 9 4 11 10 4
13 -5 13 -33 1z"/>
<path d="M11017 3133 c-6 -13 -3 -33 6 -33 41 0 42 1 19 13 -12 7 -19 16 -16
20 4 4 5 7 1 7 -3 0 -8 -3 -10 -7z"/>
<path d="M11030 3065 c0 -8 2 -15 4 -15 2 0 6 7 10 15 3 8 1 15 -4 15 -6 0
-10 -7 -10 -15z"/>
<path d="M11061 2744 c0 -11 3 -14 6 -6 3 7 2 16 -1 19 -3 4 -6 -2 -5 -13z"/>
<path d="M11060 2621 c0 -6 4 -13 10 -16 6 -3 7 1 4 9 -7 18 -14 21 -14 7z"/>
<path d="M11050 2351 c0 -5 7 -11 15 -15 8 -3 15 -1 15 3 0 5 -7 11 -15 15 -8
3 -15 1 -15 -3z"/>
<path d="M11031 2314 c0 -11 3 -14 6 -6 3 7 2 16 -1 19 -3 4 -6 -2 -5 -13z"/>
<path d="M7696 4785 c-3 -9 0 -15 9 -15 9 0 12 6 9 15 -4 8 -7 15 -9 15 -2 0
-5 -7 -9 -15z"/>
<path d="M7690 4675 c0 -8 2 -15 4 -15 2 0 6 7 10 15 3 8 1 15 -4 15 -6 0 -10
-7 -10 -15z"/>
<path d="M7695 4390 c-3 -6 1 -7 9 -4 18 7 21 14 7 14 -6 0 -13 -4 -16 -10z"/>
<path d="M7697 4023 c-4 -3 -7 -11 -7 -17 0 -6 5 -5 12 2 6 6 9 14 7 17 -3 3
-9 2 -12 -2z"/>
<path d="M7686 3961 c9 -9 34 -9 34 -1 0 5 -9 8 -20 7 -10 -1 -17 -3 -14 -6z"/>
<path d="M7690 3600 c-12 -7 -10 -9 8 -7 12 0 22 5 22 9 0 11 -12 10 -30 -2z"/>
<path d="M7700 3040 c0 -5 5 -10 11 -10 5 0 7 5 4 10 -3 6 -8 10 -11 10 -2 0
-4 -4 -4 -10z"/>
<path d="M7688 3013 c6 -2 18 -2 25 0 6 3 1 5 -13 5 -14 0 -19 -2 -12 -5z"/>
<path d="M3768 4963 c17 -2 47 -2 65 0 17 2 3 4 -33 4 -36 0 -50 -2 -32 -4z"/>
<path d="M3928 4953 c17 -2 47 -2 65 0 17 2 3 4 -33 4 -36 0 -50 -2 -32 -4z"/>
<path d="M4108 4943 c18 -2 45 -2 60 0 15 2 0 4 -33 4 -33 0 -45 -2 -27 -4z"/>
<path d="M4268 4933 c18 -2 45 -2 60 0 15 2 0 4 -33 4 -33 0 -45 -2 -27 -4z"/>
<path d="M4408 4923 c17 -2 47 -2 65 0 17 2 3 4 -33 4 -36 0 -50 -2 -32 -4z"/>
<path d="M4578 4913 c18 -2 45 -2 60 0 15 2 0 4 -33 4 -33 0 -45 -2 -27 -4z"/>
<path d="M4727 4903 c18 -2 50 -2 70 0 21 2 7 4 -32 4 -38 0 -55 -2 -38 -4z"/>
<path d="M4888 4893 c17 -2 47 -2 65 0 17 2 3 4 -33 4 -36 0 -50 -2 -32 -4z"/>
<path d="M11065 1800 c3 -5 8 -10 11 -10 2 0 4 5 4 10 0 6 -5 10 -11 10 -5 0
-7 -4 -4 -10z"/>
</g>
</svg>
