<?xml version="1.0" standalone="no"?>
<!DOCTYPE svg PUBLIC "-//W3C//DTD SVG 20010904//EN"
 "http://www.w3.org/TR/2001/REC-SVG-20010904/DTD/svg10.dtd">
<svg version="1.0" xmlns="http://www.w3.org/2000/svg"
 width="1200.000000pt" height="675.000000pt" viewBox="0 0 1200.000000 675.000000"
 preserveAspectRatio="xMidYMid meet">

<g transform="translate(0.000000,675.000000) scale(0.100000,-0.100000)"
fill="#000000" stroke="none">
<path d="M8343 5633 c-13 -2 -23 -7 -23 -10 0 -3 23 -77 50 -163 l50 -158 0
-1728 c0 -950 -2 -1729 -4 -1731 -3 -3 -490 84 -513 92 -10 3 -13 350 -13
1689 l0 1684 -49 7 c-27 4 -64 2 -82 -3 -22 -6 -198 -3 -489 9 -250 9 -673 24
-940 34 -267 9 -493 21 -502 26 -10 5 -49 9 -88 9 l-70 0 0 -1525 0 -1525 -21
0 c-11 0 -30 -5 -41 -11 -21 -12 -105 -2 -200 22 l-38 10 0 1317 c0 1157 -2
1320 -15 1339 -8 12 -31 52 -51 90 -20 37 -41 72 -48 76 -6 5 -49 6 -96 2 -63
-4 -88 -10 -98 -22 -11 -16 -42 -15 -475 6 -254 12 -576 29 -716 36 l-255 14
-21 27 c-21 27 -21 27 -118 19 -53 -4 -97 -11 -97 -16 0 -5 41 -65 90 -133
l90 -125 0 -1151 c0 -914 -3 -1150 -12 -1150 -7 1 -40 6 -73 13 l-60 13 -3
1147 -2 1147 -118 0 c-177 0 -1233 68 -1259 82 -20 10 -119 6 -130 -6 -2 -2
-5 -471 -5 -1043 0 -571 -2 -1041 -4 -1044 -2 -4 -25 -1 -51 5 l-48 12 -3 829
c-2 648 -5 831 -15 837 -6 5 -39 6 -72 3 -78 -8 -1061 79 -1080 95 -9 8 -33 9
-69 5 l-56 -7 0 -787 0 -786 -85 -19 -85 -19 0 -242 0 -243 72 -16 c115 -26
144 -29 179 -18 19 6 80 25 137 42 l102 31 -6 205 c-4 112 -4 204 0 204 9 0
758 -140 771 -144 6 -2 -18 -11 -52 -21 l-63 -18 0 -258 0 -258 38 -10 c20 -5
132 -30 247 -55 l210 -47 130 49 130 49 3 221 c2 179 5 222 16 222 14 0 232
-40 681 -125 132 -25 244 -45 250 -45 18 0 -10 -17 -58 -35 l-47 -18 0 -278
c0 -162 4 -280 9 -284 6 -3 141 -34 301 -70 l292 -64 119 59 119 60 0 246 c0
230 1 246 18 242 9 -3 279 -54 599 -114 320 -59 579 -112 577 -116 -3 -5 -23
-17 -45 -28 l-39 -20 0 -315 c0 -173 1 -315 3 -315 2 0 205 -45 452 -100 248
-55 455 -98 462 -96 7 3 64 43 128 90 l115 86 0 250 c0 193 3 250 13 250 25 0
1279 -239 1285 -245 3 -3 -11 -19 -31 -36 l-37 -30 0 -350 0 -349 23 -5 c12
-3 317 -70 677 -150 360 -80 665 -147 677 -150 19 -5 33 10 98 107 l75 113 0
289 0 288 38 -7 c20 -4 348 -65 727 -136 380 -72 764 -144 855 -161 91 -16
168 -33 172 -37 4 -3 1 -24 -7 -46 -11 -32 -14 -121 -15 -441 l0 -401 438 -97
c240 -53 442 -96 448 -96 6 0 18 63 28 158 14 129 17 225 14 537 l-3 379 -195
36 -195 35 -6 2070 c-4 1139 -10 2095 -15 2125 l-9 55 -65 3 c-91 4 -114 -3
-106 -33 6 -23 4 -25 -31 -25 -51 0 -1967 47 -2265 56 l-237 7 -10 28 c-10 29
-11 29 -83 28 -40 -1 -83 -4 -95 -6z m592 -83 c187 -5 453 -12 590 -15 138 -3
300 -7 360 -10 61 -3 243 -8 405 -11 162 -4 403 -9 535 -13 l240 -6 3 -29 4
-29 -54 6 c-29 3 -593 20 -1253 38 -688 18 -1205 36 -1212 42 -23 17 -15 37
15 37 15 0 180 -5 367 -10z m295 -75 c163 -6 681 -21 1220 -35 217 -5 438 -12
490 -15 52 -2 105 -5 118 -5 17 0 22 -6 22 -26 l0 -27 -112 7 c-120 7 -276 12
-1567 51 -453 14 -827 28 -832 31 -5 3 -9 12 -9 21 0 14 27 15 268 9 147 -3
328 -9 402 -11z m-245 -60 c121 -3 279 -8 350 -10 72 -3 357 -12 635 -20 904
-27 1104 -35 1111 -43 4 -4 10 -44 14 -89 l7 -83 -73 5 c-65 4 -187 10 -714
30 -71 3 -310 12 -530 20 -220 8 -574 22 -787 30 -213 8 -394 15 -403 15 -12
0 -15 15 -15 81 l0 81 93 -6 c50 -3 191 -8 312 -11z m-4670 -250 c374 -19 699
-35 721 -35 30 0 44 -5 48 -16 4 -9 5 -18 3 -20 -2 -2 -324 13 -715 34 -626
33 -714 40 -729 55 -10 9 -15 17 -13 17 3 0 311 -16 685 -35z m-115 -46 c717
-37 900 -48 910 -54 6 -3 10 -13 10 -22 0 -11 -6 -14 -21 -10 -12 3 -328 22
-703 42 -374 21 -693 42 -708 47 -52 19 -30 30 50 23 42 -3 250 -14 462 -26z
m6886 22 c-4 -5 -2 -11 4 -13 6 -2 6 -8 0 -18 -8 -13 -10 -12 -10 3 0 10 -5
15 -10 12 -6 -4 -8 -10 -5 -15 3 -5 1 -11 -4 -14 -13 -9 -7 19 8 38 14 17 26
22 17 7z m-6891 -71 c193 -11 483 -27 645 -36 331 -18 300 -9 354 -105 l29
-52 -69 6 c-38 3 -364 24 -724 47 -360 22 -669 43 -687 46 -31 4 -31 6 -35 64
l-3 60 70 -5 c39 -3 228 -14 420 -25z m6892 -38 c1 -10 -4 -19 -12 -19 -10 0
-12 13 -6 35 4 10 17 -2 18 -16z m0 -84 c-3 -8 -6 -5 -6 6 -1 11 2 17 5 13 3
-3 4 -12 1 -19z m-11 -100 c4 -7 4 -10 -1 -6 -4 4 -15 2 -24 -5 -14 -11 -14
-10 -2 6 16 20 18 21 27 5z m-5159 -5 c-20 -2 -52 -2 -70 0 -17 2 0 4 38 4 39
0 53 -2 32 -4z m161 -10 c-21 -2 -55 -2 -75 0 -21 2 -4 4 37 4 41 0 58 -2 38
-4z m160 -10 c-21 -2 -57 -2 -80 0 -24 2 -7 4 37 4 44 0 63 -2 43 -4z m160
-10 c-21 -2 -57 -2 -80 0 -24 2 -7 4 37 4 44 0 63 -2 43 -4z m267 -12 c82 -7
84 -8 25 -8 -36 -1 -108 3 -160 7 -90 6 -91 7 -25 7 39 1 111 -2 160 -6z m213
-18 c-21 -2 -57 -2 -80 0 -24 2 -7 4 37 4 44 0 63 -2 43 -4z m354 -22 c4 -3
-45 -3 -110 1 -196 12 -215 16 -52 11 85 -3 158 -8 162 -12z m366 -18 c74 -3
132 -10 132 -16 0 -6 -19 -7 -47 -4 -27 4 -129 11 -228 17 -99 6 -187 13 -195
15 -15 4 70 1 338 -12z m1502 -95 c206 -13 356 -24 333 -26 -54 -4 -845 47
-853 55 -3 3 29 3 70 0 41 -3 244 -16 450 -29z m-7007 -5 c-7 -2 -19 -2 -25 0
-7 3 -2 5 12 5 14 0 19 -2 13 -5z m104 -9 c-3 -3 -12 -4 -19 -1 -8 3 -5 6 6 6
11 1 17 -2 13 -5z m100 -10 c-3 -3 -12 -4 -19 -1 -8 3 -5 6 6 6 11 1 17 -2 13
-5z m126 -11 c-7 -2 -19 -2 -25 0 -7 3 -2 5 12 5 14 0 19 -2 13 -5z m7609 -22
c254 -17 596 -38 758 -47 162 -10 300 -22 305 -27 6 -6 -14 -7 -55 -4 -36 3
-389 26 -785 51 -768 49 -807 52 -733 54 25 1 255 -11 510 -27z m-7484 12
c-10 -2 -26 -2 -35 0 -10 3 -2 5 17 5 19 0 27 -2 18 -5z m110 -10 c-10 -2 -26
-2 -35 0 -10 3 -2 5 17 5 19 0 27 -2 18 -5z m110 -10 c-10 -2 -26 -2 -35 0
-10 3 -2 5 17 5 19 0 27 -2 18 -5z m115 -10 c-7 -2 -21 -2 -30 0 -10 3 -4 5
12 5 17 0 24 -2 18 -5z m115 -10 c-10 -2 -26 -2 -35 0 -10 3 -2 5 17 5 19 0
27 -2 18 -5z m125 -10 c-13 -2 -33 -2 -45 0 -13 2 -3 4 22 4 25 0 35 -2 23 -4z
m137 -11 c0 -4 -18 -6 -40 -4 -22 2 -40 6 -40 8 0 2 18 4 40 4 22 0 40 -3 40
-8z m548 -49 c-10 -2 -28 -2 -40 0 -13 2 -5 4 17 4 22 1 32 -1 23 -4z m120
-10 c-10 -2 -28 -2 -40 0 -13 2 -5 4 17 4 22 1 32 -1 23 -4z m105 -10 c-7 -2
-21 -2 -30 0 -10 3 -4 5 12 5 17 0 24 -2 18 -5z m7055 -29 c-3 -14 -5 -12 -10
9 -3 19 -2 25 4 19 6 -6 8 -18 6 -28z m-6950 19 c-10 -2 -26 -2 -35 0 -10 3
-2 5 17 5 19 0 27 -2 18 -5z m130 -10 c-10 -2 -28 -2 -40 0 -13 2 -5 4 17 4
22 1 32 -1 23 -4z m110 -10 c-10 -2 -28 -2 -40 0 -13 2 -5 4 17 4 22 1 32 -1
23 -4z m115 -10 c-13 -2 -33 -2 -45 0 -13 2 -3 4 22 4 25 0 35 -2 23 -4z m110
-10 c-13 -2 -33 -2 -45 0 -13 2 -3 4 22 4 25 0 35 -2 23 -4z m115 -10 c-10 -2
-28 -2 -40 0 -13 2 -5 4 17 4 22 1 32 -1 23 -4z m115 -10 c-13 -2 -35 -2 -50
0 -16 2 -5 4 22 4 28 0 40 -2 28 -4z m115 -10 c-10 -2 -28 -2 -40 0 -13 2 -5
4 17 4 22 1 32 -1 23 -4z m115 -10 c-13 -2 -35 -2 -50 0 -16 2 -5 4 22 4 28 0
40 -2 28 -4z m147 -13 c0 -6 -19 -7 -47 -3 -65 8 -67 13 -5 13 29 0 52 -4 52
-10z m5871 -13 c-10 -9 -11 -8 -5 6 3 10 9 15 12 12 3 -3 0 -11 -7 -18z
m-5213 -44 c-10 -2 -26 -2 -35 0 -10 3 -2 5 17 5 19 0 27 -2 18 -5z m115 -10
c-13 -2 -33 -2 -45 0 -13 2 -3 4 22 4 25 0 35 -2 23 -4z m110 -10 c-13 -2 -35
-2 -50 0 -16 2 -5 4 22 4 28 0 40 -2 28 -4z m110 -10 c-13 -2 -33 -2 -45 0
-13 2 -3 4 22 4 25 0 35 -2 23 -4z m110 -10 c-13 -2 -33 -2 -45 0 -13 2 -3 4
22 4 25 0 35 -2 23 -4z m130 -10 c-13 -2 -35 -2 -50 0 -16 2 -5 4 22 4 28 0
40 -2 28 -4z m110 -10 c-13 -2 -33 -2 -45 0 -13 2 -3 4 22 4 25 0 35 -2 23 -4z
m115 -10 c-16 -2 -40 -2 -55 0 -16 2 -3 4 27 4 30 0 43 -2 28 -4z m105 -10
c-13 -2 -33 -2 -45 0 -13 2 -3 4 22 4 25 0 35 -2 23 -4z m125 -10 c-16 -2 -40
-2 -55 0 -16 2 -3 4 27 4 30 0 43 -2 28 -4z m105 -10 c-13 -2 -35 -2 -50 0
-16 2 -5 4 22 4 28 0 40 -2 28 -4z m125 -10 c-16 -2 -40 -2 -55 0 -16 2 -3 4
27 4 30 0 43 -2 28 -4z m110 -10 c-16 -2 -40 -2 -55 0 -16 2 -3 4 27 4 30 0
43 -2 28 -4z m3852 -15 c0 -19 -2 -20 -10 -8 -13 19 -13 30 0 30 6 0 10 -10
10 -22z m-3737 5 c-13 -2 -35 -2 -50 0 -16 2 -5 4 22 4 28 0 40 -2 28 -4z
m110 -10 c-13 -2 -35 -2 -50 0 -16 2 -5 4 22 4 28 0 40 -2 28 -4z m93 -11
c-27 -2 -52 0 -57 5 -4 4 18 6 49 3 l57 -5 -49 -3z m174 -12 c0 -12 -20 -12
-75 -1 -40 9 -39 9 18 10 32 0 57 -3 57 -9z m3360 -76 c0 -8 -5 -12 -10 -9 -6
4 -8 11 -5 16 9 14 15 11 15 -7z m-7833 0 c-3 -3 -12 -4 -19 -1 -8 3 -5 6 6 6
11 1 17 -2 13 -5z m5366 -1 c-7 -2 -21 -2 -30 0 -10 3 -4 5 12 5 17 0 24 -2
18 -5z m95 -10 c-16 -2 -40 -2 -55 0 -16 2 -3 4 27 4 30 0 43 -2 28 -4z m125
-10 c-13 -2 -35 -2 -50 0 -16 2 -5 4 22 4 28 0 40 -2 28 -4z m105 -10 c-16 -2
-40 -2 -55 0 -16 2 -3 4 27 4 30 0 43 -2 28 -4z m120 -10 c-15 -2 -42 -2 -60
0 -18 2 -6 4 27 4 33 0 48 -2 33 -4z m110 -10 c-16 -2 -40 -2 -55 0 -16 2 -3
4 27 4 30 0 43 -2 28 -4z m110 -10 c-16 -2 -40 -2 -55 0 -16 2 -3 4 27 4 30 0
43 -2 28 -4z m115 -10 c-13 -2 -35 -2 -50 0 -16 2 -5 4 22 4 28 0 40 -2 28 -4z
m115 -10 c-16 -2 -40 -2 -55 0 -16 2 -3 4 27 4 30 0 43 -2 28 -4z m120 -10
c-16 -2 -40 -2 -55 0 -16 2 -3 4 27 4 30 0 43 -2 28 -4z m110 -10 c-16 -2 -40
-2 -55 0 -16 2 -3 4 27 4 30 0 43 -2 28 -4z m192 -13 c61 -7 62 -7 15 -7 -27
-1 -79 3 -115 7 -61 7 -62 7 -15 7 28 1 79 -3 115 -7z m230 -20 c61 -7 62 -7
15 -7 -27 -1 -79 3 -115 7 -61 7 -62 7 -15 7 28 1 79 -3 115 -7z m280 -24 c69
-8 105 -14 80 -14 -25 0 -101 5 -170 12 -69 8 -105 14 -80 14 25 0 101 -5 170
-12z m374 -31 c238 -19 278 -24 272 -34 -3 -4 -36 -4 -73 1 -37 5 -153 18
-258 27 -104 10 -177 19 -161 20 16 0 115 -6 220 -14z m-5614 -34 c0 -5 -9 -7
-20 -4 -11 3 -20 7 -20 9 0 2 9 4 20 4 11 0 20 -4 20 -9z m797 -87 c-3 -3 -12
-4 -19 -1 -8 3 -5 6 6 6 11 1 17 -2 13 -5z m90 -10 c-3 -3 -12 -4 -19 -1 -8 3
-5 6 6 6 11 1 17 -2 13 -5z m256 -31 c-7 -2 -19 -2 -25 0 -7 3 -2 5 12 5 14 0
19 -2 13 -5z m360 -40 c-7 -2 -19 -2 -25 0 -7 3 -2 5 12 5 14 0 19 -2 13 -5z
m170 -20 c-7 -2 -21 -2 -30 0 -10 3 -4 5 12 5 17 0 24 -2 18 -5z m190 -20 c-7
-2 -19 -2 -25 0 -7 3 -2 5 12 5 14 0 19 -2 13 -5z m90 -10 c-7 -2 -19 -2 -25
0 -7 3 -2 5 12 5 14 0 19 -2 13 -5z m154 -19 c-3 -3 -12 -4 -19 -1 -8 3 -5 6
6 6 11 1 17 -2 13 -5z m116 -11 c-7 -2 -21 -2 -30 0 -10 3 -4 5 12 5 17 0 24
-2 18 -5z m170 -20 c-7 -2 -19 -2 -25 0 -7 3 -2 5 12 5 14 0 19 -2 13 -5z
m127 -13 c0 -11 -14 -11 -50 0 -22 7 -21 8 13 9 20 1 37 -3 37 -9z m3357 -82
c-3 -8 -6 -5 -6 6 -1 11 2 17 5 13 3 -3 4 -12 1 -19z m-2414 -25 c-7 -2 -19
-2 -25 0 -7 3 -2 5 12 5 14 0 19 -2 13 -5z m90 -10 c-7 -2 -19 -2 -25 0 -7 3
-2 5 12 5 14 0 19 -2 13 -5z m90 -10 c-7 -2 -21 -2 -30 0 -10 3 -4 5 12 5 17
0 24 -2 18 -5z m84 -9 c-3 -3 -12 -4 -19 -1 -8 3 -5 6 6 6 11 1 17 -2 13 -5z
m76 -11 c-7 -2 -19 -2 -25 0 -7 3 -2 5 12 5 14 0 19 -2 13 -5z m2074 -8 c0 -8
-4 -15 -9 -15 -10 0 -11 14 -1 23 9 10 10 9 10 -8z m-1974 -2 c-7 -2 -19 -2
-25 0 -7 3 -2 5 12 5 14 0 19 -2 13 -5z m100 -10 c-7 -2 -21 -2 -30 0 -10 3
-4 5 12 5 17 0 24 -2 18 -5z m85 -10 c-10 -2 -28 -2 -40 0 -13 2 -5 4 17 4 22
1 32 -1 23 -4z m75 -10 c-7 -2 -19 -2 -25 0 -7 3 -2 5 12 5 14 0 19 -2 13 -5z
m100 -10 c-7 -2 -21 -2 -30 0 -10 3 -4 5 12 5 17 0 24 -2 18 -5z m90 -10 c-7
-2 -21 -2 -30 0 -10 3 -4 5 12 5 17 0 24 -2 18 -5z m85 -10 c-10 -2 -26 -2
-35 0 -10 3 -2 5 17 5 19 0 27 -2 18 -5z m90 -10 c-10 -2 -26 -2 -35 0 -10 3
-2 5 17 5 19 0 27 -2 18 -5z m-4531 -9 c-3 -3 -12 -4 -19 -1 -8 3 -5 6 6 6 11
1 17 -2 13 -5z m4616 -1 c-7 -2 -21 -2 -30 0 -10 3 -4 5 12 5 17 0 24 -2 18
-5z m90 -10 c-7 -2 -21 -2 -30 0 -10 3 -4 5 12 5 17 0 24 -2 18 -5z m95 -10
c-10 -2 -26 -2 -35 0 -10 3 -2 5 17 5 19 0 27 -2 18 -5z m80 -10 c-10 -2 -26
-2 -35 0 -10 3 -2 5 17 5 19 0 27 -2 18 -5z m110 -10 c-10 -2 -28 -2 -40 0
-13 2 -5 4 17 4 22 1 32 -1 23 -4z m70 -10 c-10 -2 -26 -2 -35 0 -10 3 -2 5
17 5 19 0 27 -2 18 -5z m95 -10 c-7 -2 -21 -2 -30 0 -10 3 -4 5 12 5 17 0 24
-2 18 -5z m84 -9 c-3 -3 -12 -4 -19 -1 -8 3 -5 6 6 6 11 1 17 -2 13 -5z m101
-11 c-10 -2 -28 -2 -40 0 -13 2 -5 4 17 4 22 1 32 -1 23 -4z m80 -10 c-10 -2
-26 -2 -35 0 -10 3 -2 5 17 5 19 0 27 -2 18 -5z m90 -10 c-10 -2 -28 -2 -40 0
-13 2 -5 4 17 4 22 1 32 -1 23 -4z m90 -10 c-10 -2 -28 -2 -40 0 -13 2 -5 4
17 4 22 1 32 -1 23 -4z m90 -10 c-10 -2 -28 -2 -40 0 -13 2 -5 4 17 4 22 1 32
-1 23 -4z m191 -19 c12 -12 -12 -12 -84 1 l-80 14 80 -5 c44 -3 82 -7 84 -10z
m1 -63 c0 -29 -15 -33 -16 -5 -1 13 2 24 7 24 5 0 9 -9 9 -19z m-3365 -141 c7
-11 -9 -11 -45 0 -24 8 -24 8 7 9 17 1 35 -3 38 -9z m3361 -235 c-1 -8 -5 -17
-8 -21 -5 -4 -4 16 1 34 3 9 9 -1 7 -13z m6 -227 c17 -10 -49 -9 -82 2 -20 7
-15 8 22 7 27 0 54 -4 60 -9z m-9 -59 c-8 -8 -13 -7 -18 2 -5 8 -4 10 3 5 7
-4 12 -2 12 5 0 7 3 9 7 6 4 -4 2 -12 -4 -18z m-3363 -59 c11 -8 7 -9 -15 -4
-37 8 -45 14 -19 14 10 0 26 -5 34 -10z m3351 -540 c11 0 19 -4 19 -9 0 -9
-89 5 -99 15 -3 4 9 4 28 0 18 -3 42 -6 52 -6z"/>
</g>
</svg>
