<?xml version="1.0" standalone="no"?>
<!DOCTYPE svg PUBLIC "-//W3C//DTD SVG 20010904//EN"
 "http://www.w3.org/TR/2001/REC-SVG-20010904/DTD/svg10.dtd">
<svg version="1.0" xmlns="http://www.w3.org/2000/svg"
 width="1200.000000pt" height="675.000000pt" viewBox="0 0 1200.000000 675.000000"
 preserveAspectRatio="xMidYMid meet">

<g transform="translate(0.000000,675.000000) scale(0.100000,-0.100000)"
fill="#000000" stroke="none">
<path d="M6608 6632 c-53 -15 -101 -32 -107 -37 -25 -26 -131 -236 -131 -259
0 -16 -6 -26 -14 -26 -29 0 -58 -71 -60 -147 -1 -39 -4 -74 -6 -76 -3 -3 -30
-1 -60 4 -30 5 -197 29 -370 54 -173 25 -544 79 -825 120 -1195 174 -1613 235
-1619 235 -3 0 -6 9 -6 20 0 22 -6 24 -123 40 -67 10 -82 9 -103 -4 -13 -9
-24 -14 -24 -11 0 3 -9 1 -20 -5 -20 -11 -20 -23 -22 -2488 l-3 -2477 -160
-27 c-88 -15 -175 -30 -192 -33 l-33 -6 1 -602 0 -602 158 -122 158 -122 224
60 c123 33 294 78 379 100 85 23 162 45 172 50 16 8 17 54 17 610 l-1 601 -81
38 -82 38 55 11 c30 6 96 18 145 26 50 9 254 45 455 81 970 173 1604 284 1621
284 18 0 18 -16 16 -431 l-2 -430 145 -55 c80 -31 172 -66 205 -78 l60 -23
230 62 c127 34 242 65 258 69 l27 6 0 484 0 483 -157 37 c-87 21 -164 39 -171
41 -10 4 -12 37 -10 142 l3 137 250 38 c138 20 324 49 415 62 91 14 391 59
667 100 277 42 507 76 513 76 6 0 10 -40 10 -100 0 -119 13 -108 -162 -134
l-118 -18 0 -399 0 -398 38 -10 c20 -6 117 -30 214 -54 l176 -44 254 67 c139
37 512 136 828 220 316 84 647 171 735 195 l160 42 3 335 2 336 -22 6 c-13 3
-38 6 -55 6 l-33 0 0 280 c0 181 -4 280 -10 280 -7 0 -10 407 -10 1217 0 937
-2 1218 -12 1224 -16 10 -125 23 -170 20 -21 -1 -38 2 -38 7 0 14 -116 35
-179 33 -30 -1 -57 3 -61 9 -10 16 -160 41 -206 34 -31 -4 -43 -2 -47 9 -7 19
-143 41 -212 34 -42 -4 -55 -2 -55 8 0 16 -12 20 -104 36 -37 6 -93 9 -122 5
-43 -5 -54 -3 -54 8 0 17 -10 21 -109 36 -41 7 -100 10 -132 6 -51 -5 -57 -3
-62 14 -3 12 -14 20 -26 20 -12 0 -21 3 -21 6 0 4 32 51 70 105 39 54 70 100
70 103 0 29 -292 -5 -329 -38 -16 -15 -41 -12 -282 33 -417 78 -1283 240
-1404 262 -60 11 -116 22 -123 24 -10 4 -4 22 22 69 41 74 41 74 -59 81 -45 4
-84 -2 -157 -23z m857 -282 c1003 -184 1100 -202 1104 -206 6 -6 -22 -56 -34
-60 -13 -5 -1793 311 -1801 319 -4 3 4 22 16 41 17 28 26 35 43 31 12 -3 315
-59 672 -125z m174 -140 c476 -83 867 -152 869 -154 2 -2 -4 -18 -12 -35 -14
-25 -21 -30 -44 -25 -44 8 -1255 210 -1529 255 -139 23 -253 45 -253 48 0 3 9
21 21 40 18 29 24 32 52 27 18 -3 421 -73 896 -156z m-184 -75 c418 -69 820
-135 893 -147 85 -14 127 -24 115 -29 -41 -15 -53 -52 -53 -163 0 -58 -3 -107
-7 -109 -5 -2 -377 47 -828 109 -451 62 -866 118 -921 125 l-101 12 -6 74 -6
74 56 95 c47 80 58 93 76 89 12 -3 364 -61 782 -130z m370 -400 c313 -42 573
-79 577 -81 10 -7 11 -231 1 -237 -6 -3 -1833 197 -1850 202 -2 1 -3 65 -3
144 l0 143 353 -48 c193 -26 608 -81 922 -123z m-790 -201 c242 -26 649 -70
905 -98 l465 -51 3 -114 c1 -63 -1 -118 -5 -122 -4 -4 -53 -4 -108 1 -55 5
-446 39 -870 75 -423 35 -794 67 -822 70 l-53 6 0 145 0 144 23 -4 c12 -3 220
-26 462 -52z m-2970 -74 c335 -27 972 -79 1415 -115 697 -57 891 -76 789 -75
-61 1 -2852 229 -2857 234 -9 10 21 8 653 -44z m3450 -271 c479 -38 876 -72
883 -74 9 -4 12 -33 10 -122 l-3 -118 -70 2 c-38 2 -452 25 -918 53 -467 27
-853 50 -858 50 -5 0 -9 63 -9 146 l0 146 48 -6 c26 -3 439 -38 917 -77z
m-422 -269 c625 -35 847 -48 1112 -63 l200 -12 3 -114 c1 -63 -1 -118 -6 -123
-4 -4 -136 -3 -292 2 -560 20 -1474 50 -1516 50 l-44 0 0 145 c0 93 4 145 10
145 6 0 246 -13 533 -30z m-123 -300 c146 -5 524 -16 840 -25 316 -9 581 -18
588 -21 9 -2 12 -36 12 -125 l0 -122 -477 6 c-263 4 -682 7 -930 7 l-453 0 0
145 0 145 78 0 c42 0 196 -5 342 -10z m-2580 -120 c377 -5 784 -12 905 -15
121 -3 394 -8 608 -11 225 -4 387 -11 387 -16 0 -5 -97 -7 -242 -4 -341 8
-726 14 -1608 26 -837 12 -1030 17 -1030 31 0 6 60 7 148 4 81 -3 455 -10 832
-15z m4018 -316 l3 -122 -268 -6 c-537 -12 -736 -16 -1160 -22 l-433 -7 0 141
c0 123 2 141 17 144 9 2 426 1 927 -2 l911 -5 3 -121z m2 -274 c0 -66 -1 -120
-2 -120 -2 0 -403 -18 -893 -40 -489 -22 -907 -40 -927 -40 l-38 0 0 145 0
145 168 1 c92 1 403 7 692 13 289 7 632 14 763 14 l237 2 0 -120z m0 -269 l0
-119 -62 -6 c-35 -4 -355 -27 -713 -51 -357 -25 -741 -52 -852 -60 -111 -8
-209 -15 -218 -15 -13 0 -15 22 -15 145 l0 145 31 0 c31 0 1162 53 1469 69 91
4 209 9 263 10 l97 1 0 -119z m-2111 4 c-5 -4 -1006 -55 -2264 -115 -232 -11
-344 -16 -512 -26 -80 -4 -113 -3 -113 5 0 6 19 11 47 11 26 0 180 7 343 15
162 8 633 31 1045 51 413 19 865 41 1005 48 278 14 456 19 449 11z m2111 -274
l0 -120 -42 -5 c-38 -5 -1143 -111 -1573 -151 -88 -8 -179 -18 -202 -21 l-43
-5 0 145 c0 80 3 146 8 146 4 0 158 11 342 25 184 13 466 34 625 45 160 12
396 30 525 39 129 10 263 19 298 20 l62 1 0 -119z m0 -271 l0 -119 -32 -6
c-18 -3 -332 -41 -698 -85 -722 -87 -1047 -127 -1097 -134 l-33 -5 0 143 0
144 43 6 c23 3 296 30 607 61 311 30 691 68 845 84 154 16 299 29 323 30 l42
1 0 -120z m0 -269 l0 -119 -27 -6 c-16 -3 -62 -11 -103 -16 -41 -6 -286 -42
-545 -80 -258 -39 -546 -81 -640 -95 -93 -14 -254 -38 -357 -53 l-188 -28 0
143 c0 79 1 143 3 144 16 4 1801 227 1825 228 l32 1 0 -119z m-2123 3 c-3 -3
-12 -4 -19 -1 -8 3 -5 6 6 6 11 1 17 -2 13 -5z m-52 -10 c-11 -2 -220 -27
-465 -54 -1918 -217 -2299 -260 -2327 -265 -18 -3 -33 -2 -33 2 0 5 213 32
473 61 597 67 1522 171 1957 221 281 32 474 49 395 35z"/>
</g>
</svg>
