<?xml version="1.0" standalone="no"?>
<!DOCTYPE svg PUBLIC "-//W3C//DTD SVG 20010904//EN"
 "http://www.w3.org/TR/2001/REC-SVG-20010904/DTD/svg10.dtd">
<svg version="1.0" xmlns="http://www.w3.org/2000/svg"
 width="1200.000000pt" height="675.000000pt" viewBox="0 0 1200.000000 675.000000"
 preserveAspectRatio="xMidYMid meet">

<g transform="translate(0.000000,675.000000) scale(0.100000,-0.100000)"
fill="#000000" stroke="none">
<path d="M6605 6631 l-100 -28 -67 -119 c-38 -66 -68 -131 -68 -146 0 -18 -5
-28 -15 -28 -28 0 -55 -74 -55 -149 0 -38 -3 -72 -7 -74 -5 -3 -33 -1 -63 4
-30 5 -194 29 -365 54 -170 24 -542 78 -825 119 -283 42 -749 109 -1035 151
-286 41 -537 78 -557 81 -29 4 -38 11 -38 25 0 21 -7 23 -123 39 -67 10 -82 9
-103 -4 -13 -9 -24 -14 -24 -11 0 3 -9 1 -20 -5 -20 -11 -20 -23 -22 -2487
l-3 -2477 -30 -7 c-16 -4 -93 -17 -170 -29 -77 -12 -150 -24 -163 -27 l-22 -5
2 -601 3 -601 156 -122 156 -123 294 78 c162 43 336 89 388 102 73 19 95 28
101 45 5 12 9 286 9 608 l0 588 -82 37 -82 38 50 11 c28 6 66 13 85 16 19 4
287 51 595 106 1204 213 1528 270 1546 270 18 0 19 -16 21 -432 l3 -432 190
-74 c105 -40 199 -73 210 -73 11 -1 115 25 230 56 116 31 227 60 248 66 l37
10 0 483 0 483 -157 37 c-87 21 -164 39 -170 41 -10 3 -13 41 -13 144 0 138 0
141 23 145 12 3 87 14 167 26 80 12 183 28 230 36 47 8 225 34 395 59 171 25
382 56 470 70 349 54 560 83 567 79 11 -7 10 -202 -2 -209 -5 -3 -64 -15 -131
-26 -67 -10 -125 -22 -130 -25 -8 -4 -14 -794 -6 -794 1 0 97 -24 213 -54
l212 -53 253 67 c140 37 513 136 829 220 316 84 647 171 735 195 l160 42 3
335 2 336 -22 6 c-13 3 -38 6 -55 6 l-33 0 0 279 c0 177 -4 282 -10 286 -7 4
-10 417 -10 1217 0 666 -2 1213 -4 1216 -10 9 -93 21 -153 22 -34 0 -63 4 -65
10 -4 14 -102 31 -173 31 -33 0 -62 4 -66 10 -10 17 -154 39 -204 33 -31 -5
-43 -3 -48 8 -7 20 -142 42 -212 35 -42 -4 -55 -2 -55 8 0 16 -11 20 -100 35
-36 7 -91 9 -122 5 -48 -5 -58 -3 -58 9 0 17 -10 20 -109 36 -41 7 -100 9
-131 6 -52 -6 -58 -5 -63 14 -3 12 -13 20 -26 20 -12 0 -21 3 -21 6 0 4 32 51
70 105 39 54 70 100 70 103 0 29 -294 -6 -331 -40 -16 -14 -53 -9 -450 65
-238 45 -434 79 -437 76 -6 -6 5 -8 428 -85 428 -79 532 -99 539 -106 3 -2 -1
-10 -8 -17 -9 -9 -14 -9 -20 1 -4 8 -26 16 -47 19 -35 4 -41 2 -57 -25 l-17
-30 28 -7 c16 -3 35 -5 42 -3 17 4 25 -31 11 -45 -8 -8 -14 -6 -23 5 -7 9 -29
18 -48 20 -28 2 -37 -1 -49 -24 -19 -33 -11 -42 34 -41 28 1 35 -3 35 -17 0
-24 -18 -36 -33 -21 -6 6 -28 11 -48 11 -30 0 -42 -6 -58 -29 -18 -25 -21 -44
-21 -133 0 -60 -4 -108 -11 -115 -7 -7 5 -12 40 -17 28 -4 51 -11 51 -16 0 -6
-16 -8 -40 -4 l-40 7 0 -121 c0 -87 -3 -121 -12 -125 -7 -2 11 -7 40 -11 28
-4 52 -11 52 -16 0 -6 -16 -8 -40 -4 l-40 7 0 -116 c0 -64 -4 -118 -9 -121 -5
-3 -161 7 -347 24 -404 35 -541 45 -534 37 3 -3 120 -15 260 -26 140 -12 356
-30 480 -41 123 -11 226 -20 227 -20 2 0 3 -4 3 -9 0 -5 -18 -7 -40 -4 l-40 6
0 -123 0 -123 -72 6 c-120 11 -373 20 -368 14 3 -3 100 -11 215 -17 116 -6
226 -13 245 -15 19 -2 41 -4 49 -5 8 0 11 -3 7 -7 -4 -4 -23 -6 -42 -4 l-34 3
0 -122 0 -122 -222 6 c-123 3 -216 3 -208 0 35 -11 495 -20 502 -9 5 6 8 3 8
-7 0 -14 -9 -18 -40 -18 l-40 0 0 -120 0 -120 -447 -2 c-247 -1 -416 -3 -378
-5 205 -8 895 -7 899 2 3 6 5 2 5 -7 1 -14 -7 -18 -39 -18 l-40 0 0 -120 c0
-102 -2 -120 -16 -120 -8 0 -12 -5 -8 -11 3 -6 15 -9 25 -6 11 3 19 1 19 -4 0
-5 -4 -9 -10 -9 -6 0 -10 -47 -10 -120 0 -73 -4 -120 -10 -120 -5 0 -10 -5
-10 -11 0 -6 9 -9 20 -6 11 3 20 1 20 -4 0 -5 -4 -9 -10 -9 -6 0 -10 -47 -10
-120 0 -73 -4 -120 -10 -120 -5 0 -10 -4 -10 -10 0 -5 6 -10 13 -10 9 0 11
-30 9 -125 -3 -119 -4 -125 -25 -129 -12 -3 -195 -21 -407 -41 -212 -20 -401
-38 -420 -40 -19 -3 -111 -11 -205 -20 -93 -9 -305 -29 -470 -45 -165 -17
-308 -30 -317 -30 -16 0 -18 14 -18 149 l0 148 78 7 c42 4 136 11 207 16 72 5
162 12 200 15 39 3 203 14 365 25 439 31 553 40 559 45 10 11 -95 5 -1002 -60
-191 -14 -361 -25 -377 -25 l-30 0 0 150 0 150 43 0 c23 0 80 3 127 5 157 10
734 36 885 41 83 2 166 6 185 9 19 2 118 7 220 11 102 4 226 10 275 14 l90 7
-85 2 c-47 0 -168 -3 -270 -8 -102 -6 -248 -12 -325 -16 -183 -7 -340 -14
-445 -20 -47 -3 -206 -9 -355 -15 -148 -6 -287 -12 -307 -14 l-38 -4 0 154 0
154 118 0 c64 0 412 7 772 15 360 8 717 15 793 15 78 0 137 4 137 9 0 6 -41 8
-97 6 -54 -2 -262 -7 -463 -10 -711 -10 -987 -15 -1122 -20 l-138 -6 0 154 0
153 477 -4 c263 -2 475 0 471 3 -10 10 -172 14 -585 15 l-363 0 0 152 0 151
230 -6 c144 -4 228 -2 225 4 -4 5 -52 9 -109 9 -57 0 -158 3 -224 7 l-122 6 0
149 0 148 48 0 c26 -1 340 -18 697 -39 366 -22 654 -34 660 -30 5 5 -8 9 -30
9 -48 0 -1187 67 -1297 76 l-78 6 0 149 c0 135 2 149 18 149 20 0 426 -33 677
-55 156 -14 284 -18 260 -10 -5 2 -212 20 -460 40 -247 20 -460 39 -472 41
-23 4 -23 7 -23 154 0 83 3 150 8 150 18 0 390 -40 420 -45 17 -3 32 -2 32 3
0 4 -102 19 -227 32 l-228 25 -3 153 c-1 83 0 152 2 152 3 0 189 -25 413 -56
519 -70 533 -72 533 -64 0 4 -28 11 -62 14 -35 4 -139 18 -233 31 -93 13 -279
38 -411 56 l-241 33 -6 73 -6 74 51 87 c29 48 67 114 85 147 37 66 46 82 81
138 27 45 3 45 266 -4 87 -17 165 -29 175 -27 9 2 -78 21 -194 42 -115 22
-212 40 -214 42 -2 2 13 32 33 67 41 75 41 76 -59 82 -45 3 -86 -3 -160 -24z
m-35 -111 c0 -16 -22 -23 -31 -9 -16 26 -11 41 11 29 11 -6 20 -15 20 -20z
m-62 -97 c-4 -33 -24 -41 -33 -12 -5 14 -2 25 6 30 23 15 30 10 27 -18z m-58
-107 c0 -33 -16 -42 -29 -17 -16 29 -13 41 9 41 15 0 20 -7 20 -24z m-2567
-841 c232 -19 867 -71 1412 -115 852 -70 1073 -90 979 -90 -54 0 -2857 230
-2862 234 -9 10 34 7 471 -29z m172 -970 c220 -3 774 -12 1230 -20 457 -8 869
-15 918 -15 54 0 87 -4 87 -11 0 -7 -75 -8 -242 -4 -252 6 -1196 21 -1943 30
-513 7 -695 14 -695 27 0 6 46 7 123 4 67 -3 302 -8 522 -11z m4435 -467 c0
-5 -11 -8 -25 -8 -14 0 -25 3 -25 8 0 4 11 7 25 7 14 0 25 -3 25 -7z m0 -269
c0 -5 -9 -9 -19 -9 -11 0 -22 4 -25 9 -3 5 6 9 19 9 14 0 25 -4 25 -9z m-2191
-124 c-5 -4 -308 -20 -1644 -85 -225 -11 -596 -29 -824 -40 -370 -18 -435 -19
-420 -6 2 1 159 11 349 20 190 9 680 32 1090 52 410 19 860 41 1000 48 278 14
456 19 449 11z m2191 -145 c0 -5 -9 -10 -19 -10 -11 0 -23 5 -26 10 -4 6 5 10
19 10 14 0 26 -4 26 -10z m0 -270 c0 -12 -8 -12 -35 0 -18 8 -17 9 8 9 15 1
27 -3 27 -9z m-80 -127 l-5 -128 -150 -17 c-82 -10 -296 -36 -475 -58 -179
-22 -383 -47 -455 -56 -71 -8 -179 -21 -240 -29 -60 -8 -189 -24 -285 -35 -96
-11 -192 -23 -212 -26 l-38 -6 0 151 c0 83 4 151 9 151 7 0 397 39 546 55 74
8 345 34 460 45 133 12 610 59 705 69 41 5 91 9 110 10 l35 1 -5 -127z m73
-140 c-7 -2 -21 -2 -30 0 -10 3 -4 5 12 5 17 0 24 -2 18 -5z m-75 -130 l-3
-128 -255 -37 c-140 -20 -316 -46 -390 -57 -362 -54 -560 -84 -845 -125 -170
-25 -322 -48 -337 -51 l-28 -4 0 149 c0 83 1 150 3 150 55 9 471 62 512 66 28
3 138 16 245 30 107 14 218 27 245 30 28 3 221 27 430 53 209 27 390 49 403
50 23 1 23 1 20 -126z m-2121 1 c-3 -3 -12 -4 -19 -1 -8 3 -5 6 6 6 11 1 17
-2 13 -5z m-52 -10 c-19 -4 -2068 -236 -2545 -289 -124 -14 -237 -27 -252 -30
-16 -2 -28 -1 -28 3 0 4 213 31 473 60 544 61 1470 165 1957 221 280 32 476
49 395 35z"/>
<path d="M7250 6410 c35 -13 418 -82 437 -78 13 3 -342 72 -432 84 -29 4 -29
4 -5 -6z"/>
<path d="M7521 5796 c8 -9 797 -117 829 -114 14 2 -150 27 -365 56 -214 29
-408 56 -430 59 -22 3 -37 3 -34 -1z"/>
<path d="M7032 5555 c5 -5 318 -42 673 -80 77 -8 246 -26 375 -40 129 -14 248
-28 264 -31 17 -4 26 -2 23 3 -4 6 -37 13 -74 17 -95 9 -170 17 -734 80 -504
57 -536 60 -527 51z"/>
<path d="M7021 4636 c2 -2 83 -7 179 -10 96 -4 305 -11 464 -17 272 -9 365 -8
244 5 -115 11 -896 31 -887 22z"/>
<path d="M8110 3498 c-129 -9 -149 -13 -139 -22 6 -6 401 23 407 29 7 7 -109
4 -268 -7z"/>
</g>
</svg>
